<?xml version="1.0" encoding="utf-8"?>
<svg version="1.1" id="svg2" viewBox="64.112 564.709 525.504 93.037" xmlns="http://www.w3.org/2000/svg">
  <defs id="defs6">
    <clipPath clipPathUnits="userSpaceOnUse" id="clipPath16">
      <path d="M 0,841.89 H 595.28 V 0 H 0 Z" id="path14"/>
    </clipPath>
  </defs>
  <g id="g8" transform="matrix(1.3333333,0,0,-1.3333333,0,1122.52)">
    <g id="g10">
      <g id="g12" clip-path="url(#clipPath16)">
        <g id="g18" transform="translate(150.9707,400.5814)">
          <path d="m 0,0 h -8.715 v -8.669 h 8.761 c 2.905,0 4.796,1.706 4.796,4.427 C 4.842,-1.937 3.089,0 0,0 M -0.646,11.989 H -8.715 V 5.026 h 8.069 c 2.583,0 3.782,1.752 3.782,3.551 0,2.028 -1.384,3.412 -3.782,3.412 m 0.231,-25.684 h -11.113 c -1.568,0 -2.813,1.291 -2.813,2.859 v 25.038 c 0,1.569 1.245,2.814 2.813,2.814 h 10.652 c 6.133,0 9.684,-3.182 9.684,-7.609 0,-3.09 -1.937,-5.257 -4.889,-6.594 4.012,-0.922 6.548,-3.828 6.548,-7.701 0,-4.565 -3.735,-8.807 -10.882,-8.807" style="fill:#043299;fill-opacity:1;fill-rule:nonzero;stroke:none" id="path20"/>
        </g>
        <g id="g22" transform="translate(166.6011,415.1986)">
          <path d="M 0,0 C 0,1.522 1.245,2.767 2.767,2.767 4.288,2.767 5.533,1.522 5.533,0 v -25.915 c 0,-1.522 -1.245,-2.767 -2.766,-2.767 -1.522,0 -2.767,1.245 -2.767,2.767 z" style="fill:#043299;fill-opacity:1;fill-rule:nonzero;stroke:none" id="path24"/>
        </g>
        <g id="g26" transform="translate(187.9966,391.3129)">
          <path d="m 0,0 c 3.089,0 4.334,2.352 4.334,4.796 v 8.392 c 0,1.522 1.246,2.767 2.767,2.767 1.522,0 2.767,-1.245 2.767,-2.767 v -15.17 c 0,-1.753 -1.199,-2.814 -2.767,-2.814 -1.568,0 -2.767,1.061 -2.767,2.814 v 0.368 C 3.228,-3.643 1.245,-4.98 -1.614,-4.98 c -5.164,0 -8.115,3.965 -8.115,9.499 v 8.669 c 0,1.522 1.244,2.767 2.766,2.767 1.522,0 2.767,-1.245 2.767,-2.767 V 4.796 C -4.196,2.121 -2.859,0 0,0" style="fill:#043299;fill-opacity:1;fill-rule:nonzero;stroke:none" id="path28"/>
        </g>
        <g id="g30" transform="translate(213.3569,403.0258)">
          <path d="m 0,0 c -2.536,0 -4.288,-1.66 -4.565,-4.012 h 8.9 C 3.92,-1.891 2.444,0 0,0 M 7.609,-7.932 H -4.657 c 0.277,-2.397 1.798,-4.381 4.98,-4.381 1.752,0 3.182,0.508 4.242,1.338 0.646,0.507 1.199,0.922 2.029,0.922 1.384,0 2.214,-0.876 2.214,-2.029 0,-1.291 -1.015,-2.167 -1.983,-2.767 -1.522,-0.967 -3.551,-1.844 -6.733,-1.844 -6.916,0 -10.513,4.796 -10.513,10.559 0,6.087 4.38,10.561 10.421,10.561 5.764,0 9.591,-4.52 9.591,-10.561 0,-0.876 -0.553,-1.798 -1.982,-1.798" style="fill:#043299;fill-opacity:1;fill-rule:nonzero;stroke:none" id="path32"/>
        </g>
        <g id="g34" transform="translate(230.6025,402.2875)">
          <path d="m 0,0 h -3.089 c -1.291,0 -2.26,1.015 -2.26,2.306 0,1.291 0.969,2.305 2.26,2.305 H 0 v 5.718 c 0,1.522 1.245,2.767 2.767,2.767 1.522,0 2.767,-1.245 2.767,-2.767 V 4.611 H 9.13 c 1.291,0 2.306,-1.014 2.306,-2.305 C 11.436,1.015 10.421,0 9.13,0 H 5.534 v -13.004 c 0,-1.521 -1.245,-2.767 -2.767,-2.767 -1.522,0 -2.767,1.246 -2.767,2.767 z" style="fill:#043299;fill-opacity:1;fill-rule:nonzero;stroke:none" id="path36"/>
        </g>
        <g id="g38" transform="translate(245.4961,404.5013)">
          <path d="M 0,0 C 0,1.521 1.245,2.767 2.767,2.767 4.288,2.767 5.533,1.521 5.533,0 v -15.218 c 0,-1.521 -1.245,-2.766 -2.766,-2.766 -1.522,0 -2.767,1.245 -2.767,2.766 z m 2.767,11.942 c 1.752,0 3.135,-1.382 3.135,-3.135 0,-1.752 -1.383,-3.136 -3.135,-3.136 -1.753,0 -3.136,1.384 -3.136,3.136 0,1.753 1.383,3.135 3.136,3.135" style="fill:#043299;fill-opacity:1;fill-rule:nonzero;stroke:none" id="path40"/>
        </g>
        <g id="g42" transform="translate(267.5366,417.7816)">
          <path d="M 0,0 H 1.845 C 3.136,0 4.15,-1.015 4.15,-2.306 4.15,-3.598 3.136,-4.611 1.845,-4.611 H 0.553 c -1.706,0 -2.951,-0.876 -2.951,-2.906 v -3.366 h 3.781 c 1.291,0 2.306,-1.014 2.306,-2.305 0,-1.291 -1.015,-2.306 -2.306,-2.306 h -3.781 v -13.004 c 0,-1.522 -1.245,-2.767 -2.767,-2.767 -1.521,0 -2.766,1.245 -2.766,2.767 v 13.004 h -2.352 c -1.291,0 -2.305,1.015 -2.305,2.306 0,1.291 1.014,2.305 2.305,2.305 h 2.352 V -8.07 C -7.931,-3.366 -5.441,0 0,0" style="fill:#043299;fill-opacity:1;fill-rule:nonzero;stroke:none" id="path44"/>
        </g>
        <g id="g46" transform="translate(284.229,391.3129)">
          <path d="m 0,0 c 3.089,0 4.334,2.352 4.334,4.796 v 8.392 c 0,1.522 1.245,2.767 2.768,2.767 1.521,0 2.766,-1.245 2.766,-2.767 v -15.17 c 0,-1.753 -1.199,-2.814 -2.766,-2.814 -1.569,0 -2.768,1.061 -2.768,2.814 v 0.368 C 3.228,-3.643 1.245,-4.98 -1.614,-4.98 c -5.164,0 -8.115,3.965 -8.115,9.499 v 8.669 c 0,1.522 1.244,2.767 2.766,2.767 1.522,0 2.767,-1.245 2.767,-2.767 V 4.796 C -4.196,2.121 -2.859,0 0,0" style="fill:#043299;fill-opacity:1;fill-rule:nonzero;stroke:none" id="path48"/>
        </g>
        <g id="g50" transform="translate(300.5518,415.1986)">
          <path d="M 0,0 C 0,1.522 1.245,2.767 2.767,2.767 4.289,2.767 5.534,1.522 5.534,0 v -25.915 c 0,-1.522 -1.245,-2.767 -2.767,-2.767 -1.522,0 -2.767,1.245 -2.767,2.767 z" style="fill:#043299;fill-opacity:1;fill-rule:nonzero;stroke:none" id="path52"/>
        </g>
        <g id="g54" transform="translate(328.2187,412.432)">
          <path d="M 0,0 H -9.592 V -8.438 H 0 c 3.089,0 4.473,2.075 4.473,4.15 C 4.473,-2.26 3.089,0 0,0 m -0.784,-13.649 h -8.808 v -9.453 c 0,-1.568 -1.245,-2.813 -2.812,-2.813 -1.569,0 -2.814,1.245 -2.814,2.813 V 2.352 c 0,1.568 1.245,2.813 2.814,2.813 h 11.62 c 7.654,0 10.929,-4.242 10.929,-9.453 0,-5.211 -3.275,-9.361 -10.929,-9.361" style="fill:#333333;fill-opacity:1;fill-rule:nonzero;stroke:none" id="path56"/>
        </g>
        <g id="g58" transform="translate(342.6963,415.1986)">
          <path d="M 0,0 C 0,1.522 1.245,2.767 2.767,2.767 4.289,2.767 5.534,1.522 5.534,0 v -25.915 c 0,-1.522 -1.245,-2.767 -2.767,-2.767 -1.522,0 -2.767,1.245 -2.767,2.767 z" style="fill:#333333;fill-opacity:1;fill-rule:nonzero;stroke:none" id="path60"/>
        </g>
        <g id="g62" transform="translate(363.1699,395.2787)">
          <path d="m 0,0 c -2.26,0 -3.689,-1.015 -3.689,-2.629 0,-1.613 1.567,-2.628 3.689,-2.628 2.167,0 3.873,1.153 3.873,2.628 C 3.873,-1.199 2.167,0 0,0 m 3.965,-5.902 c -1.291,-2.076 -3.412,-3.044 -5.948,-3.044 -4.427,0 -7.194,2.675 -7.194,6.317 0,4.196 3.228,6.317 7.47,6.317 2.122,0 4.243,-0.691 5.58,-2.121 v 1.476 c 0,3.09 -1.106,4.427 -4.703,4.427 -2.629,0 -4.243,-1.015 -5.487,-1.015 -1.338,0 -2.353,0.969 -2.353,2.26 0,2.997 6.18,3.459 8.347,3.459 6.271,0 9.729,-3.044 9.729,-8.762 v -9.407 c 0,-1.522 -1.106,-2.767 -2.72,-2.767 -1.568,0 -2.721,1.245 -2.721,2.767 z" style="fill:#333333;fill-opacity:1;fill-rule:nonzero;stroke:none" id="path64"/>
        </g>
        <g id="g66" transform="translate(388.4375,402.472)">
          <path d="m 0,0 c -3.09,0 -4.334,-2.352 -4.334,-4.796 v -8.392 c 0,-1.522 -1.245,-2.767 -2.768,-2.767 -1.521,0 -2.766,1.245 -2.766,2.767 v 15.17 c 0,1.753 1.199,2.814 2.766,2.814 1.569,0 2.768,-1.061 2.768,-2.814 V 1.614 c 1.106,2.029 3.089,3.366 5.948,3.366 5.164,0 8.115,-3.965 8.115,-9.499 v -8.669 c 0,-1.522 -1.245,-2.767 -2.766,-2.767 -1.522,0 -2.767,1.245 -2.767,2.767 v 8.392 C 4.196,-2.121 2.859,0 0,0" style="fill:#333333;fill-opacity:1;fill-rule:nonzero;stroke:none" id="path68"/>
        </g>
        <g id="g70" transform="translate(413.4287,403.0258)">
          <path d="M 0,0 C -2.536,0 -4.288,-1.66 -4.564,-4.012 H 4.335 C 3.92,-1.891 2.444,0 0,0 M 7.608,-7.932 H -4.657 c 0.276,-2.397 1.799,-4.381 4.98,-4.381 1.752,0 3.182,0.508 4.242,1.338 0.646,0.507 1.2,0.922 2.029,0.922 1.384,0 2.214,-0.876 2.214,-2.029 0,-1.291 -1.015,-2.167 -1.983,-2.767 -1.522,-0.967 -3.551,-1.844 -6.732,-1.844 -6.917,0 -10.514,4.796 -10.514,10.559 0,6.087 4.381,10.561 10.421,10.561 5.765,0 9.592,-4.52 9.592,-10.561 0,-0.876 -0.554,-1.798 -1.984,-1.798" style="fill:#333333;fill-opacity:1;fill-rule:nonzero;stroke:none" id="path72"/>
        </g>
        <g id="g74" transform="translate(430.6748,402.2875)">
          <path d="m 0,0 h -3.09 c -1.291,0 -2.26,1.015 -2.26,2.306 0,1.291 0.969,2.305 2.26,2.305 H 0 v 5.718 c 0,1.522 1.244,2.767 2.767,2.767 1.521,0 2.766,-1.245 2.766,-2.767 V 4.611 H 9.13 c 1.291,0 2.306,-1.014 2.306,-2.305 C 11.436,1.015 10.421,0 9.13,0 H 5.533 v -13.004 c 0,-1.521 -1.245,-2.767 -2.766,-2.767 -1.523,0 -2.767,1.246 -2.767,2.767 z" style="fill:#333333;fill-opacity:1;fill-rule:nonzero;stroke:none" id="path76"/>
        </g>
        <g id="g78" transform="translate(229.4648,360.9076)">
          <path d="M 0,0 C 0.267,-0.026 0.53,0.019 0.79,0.133 1.049,0.247 1.3,0.354 1.541,0.456 1.706,0.52 1.865,0.608 2.017,0.723 2.042,0.735 2.064,0.748 2.083,0.761 2.103,0.773 2.125,0.799 2.15,0.837 2.276,0.937 2.416,1.046 2.568,1.16 2.721,1.274 2.847,1.395 2.949,1.521 L 3.12,1.654 3.177,1.712 V 1.73 1.75 c 0.012,0 0.031,0.013 0.057,0.038 L 3.919,2.587 C 3.932,2.663 3.954,2.751 3.986,2.854 4.017,2.954 4.008,3.037 3.957,3.101 3.868,3.126 3.748,3.132 3.596,3.119 3.443,3.106 3.323,3.094 3.234,3.081 2.968,2.992 2.695,2.859 2.416,2.682 2.137,2.504 1.902,2.358 1.712,2.244 1.547,2.155 1.338,2.003 1.084,1.788 0.831,1.572 0.574,1.341 0.314,1.094 0.054,0.846 -0.187,0.602 -0.409,0.361 -0.631,0.12 -0.792,-0.064 -0.894,-0.19 c -0.064,0 -0.102,-0.026 -0.114,-0.077 -0.051,0 -0.092,-0.009 -0.124,-0.028 -0.032,-0.019 -0.085,-0.035 -0.161,-0.048 h -0.058 c -0.038,-0.025 -0.082,-0.051 -0.132,-0.076 -0.052,-0.025 -0.096,-0.038 -0.134,-0.038 -0.152,0.013 -0.244,0.069 -0.276,0.171 -0.031,0.101 -0.034,0.219 -0.009,0.352 0.026,0.133 0.067,0.263 0.124,0.39 0.057,0.127 0.091,0.222 0.104,0.285 0,0.013 0.028,0.079 0.086,0.2 0.057,0.121 0.12,0.253 0.19,0.4 0.069,0.145 0.133,0.282 0.19,0.409 0.057,0.126 0.086,0.202 0.086,0.228 0.101,0.139 0.152,0.304 0.152,0.495 0.178,0.494 0.4,1.071 0.666,1.731 0.266,0.659 0.545,1.331 0.837,2.017 0.291,0.684 0.577,1.346 0.856,1.987 0.279,0.641 0.526,1.189 0.742,1.646 l 0.342,0.209 C 2.651,10.088 2.79,10.047 2.892,9.939 2.993,9.831 3.038,9.688 3.025,9.512 3.025,9.485 3.019,9.467 3.006,9.454 2.993,9.441 2.98,9.423 2.968,9.397 2.968,9.385 2.964,9.371 2.958,9.359 2.952,9.347 2.949,9.327 2.949,9.302 V 9.245 C 2.949,9.207 2.942,9.169 2.93,9.131 2.917,9.093 2.892,9.061 2.854,9.036 2.828,8.896 2.797,8.813 2.759,8.788 2.759,8.712 2.749,8.652 2.73,8.607 2.711,8.563 2.689,8.522 2.664,8.484 2.676,8.472 2.676,8.452 2.664,8.427 2.651,8.401 2.657,8.383 2.683,8.37 2.619,8.307 2.575,8.228 2.549,8.132 2.524,8.037 2.499,7.938 2.473,7.837 2.448,7.812 2.432,7.783 2.426,7.752 2.419,7.72 2.41,7.691 2.397,7.666 2.384,7.615 2.381,7.577 2.388,7.552 2.394,7.526 2.391,7.501 2.378,7.476 2.353,7.412 2.327,7.349 2.302,7.285 2.276,7.222 2.245,7.158 2.207,7.096 2.181,7.031 2.153,6.972 2.121,6.915 2.089,6.857 2.067,6.804 2.055,6.753 L 2.017,6.562 C 2.004,6.537 1.985,6.518 1.959,6.506 1.934,6.493 1.915,6.468 1.902,6.43 1.902,6.404 1.89,6.354 1.865,6.277 1.763,6.049 1.643,5.77 1.503,5.44 1.363,5.11 1.224,4.765 1.084,4.403 0.945,4.042 0.812,3.69 0.685,3.348 0.558,3.005 0.457,2.714 0.381,2.473 0.583,2.6 0.809,2.732 1.056,2.872 1.303,3.012 1.56,3.139 1.827,3.253 2.093,3.367 2.365,3.465 2.645,3.548 2.923,3.63 3.196,3.684 3.462,3.709 3.475,3.76 3.494,3.785 3.52,3.785 3.545,3.722 3.608,3.696 3.71,3.709 3.811,3.722 3.9,3.722 3.976,3.709 4.293,3.671 4.54,3.487 4.718,3.157 4.756,3.068 4.778,2.977 4.785,2.882 4.791,2.786 4.794,2.688 4.794,2.587 4.756,2.549 4.737,2.514 4.737,2.482 4.737,2.45 4.724,2.409 4.699,2.358 4.559,1.99 4.337,1.674 4.033,1.407 3.729,1.141 3.431,0.875 3.139,0.608 H 3.12 3.063 L 2.702,0.342 C 2.676,0.342 2.664,0.349 2.664,0.361 2.6,0.298 2.54,0.247 2.483,0.209 2.426,0.171 2.359,0.126 2.283,0.075 2.257,0.05 2.232,0.024 2.207,0 2.181,-0.026 2.156,-0.026 2.131,0 1.991,-0.103 1.842,-0.187 1.684,-0.257 1.525,-0.327 1.357,-0.394 1.18,-0.457 H 1.142 C 1.129,-0.482 1.104,-0.498 1.065,-0.505 1.027,-0.511 0.989,-0.521 0.951,-0.533 0.812,-0.635 0.679,-0.666 0.552,-0.628 0.526,-0.653 0.501,-0.663 0.476,-0.656 0.45,-0.65 0.425,-0.653 0.4,-0.666 v 0.019 H 0.314 c -0.032,0 -0.054,-0.006 -0.066,-0.019 v 0.019 c -0.051,-0.026 -0.105,-0.022 -0.162,0.009 -0.057,0.033 -0.111,0.029 -0.162,-0.009 -0.076,0.012 -0.136,0.022 -0.181,0.028 -0.044,0.007 -0.079,0.042 -0.104,0.105 -0.013,0.064 0.009,0.133 0.067,0.209 0.056,0.076 0.097,0.127 0.123,0.153 0.05,0 0.086,0.015 0.105,0.047 0.019,0.032 0.041,0.041 0.066,0.029 z" style="fill:#191919;fill-opacity:1;fill-rule:nonzero;stroke:none" id="path80"/>
        </g>
        <g id="g82" transform="translate(234.7153,357.7299)">
          <path d="m 0,0 c -0.14,-0.113 -0.33,-0.295 -0.571,-0.542 -0.241,-0.247 -0.5,-0.535 -0.78,-0.865 -0.278,-0.33 -0.561,-0.682 -0.846,-1.056 -0.285,-0.374 -0.539,-0.735 -0.761,-1.085 -0.222,-0.348 -0.393,-0.668 -0.514,-0.96 -0.12,-0.292 -0.155,-0.52 -0.104,-0.685 0,-0.088 0.019,-0.146 0.056,-0.171 0.09,-0.013 0.163,-0.006 0.22,0.019 0.056,0.026 0.117,0.057 0.18,0.095 0.102,0.025 0.175,0.063 0.219,0.114 0.045,0.051 0.117,0.095 0.219,0.133 0.101,0.114 0.203,0.226 0.304,0.333 0.102,0.108 0.203,0.219 0.304,0.333 0.115,0.114 0.229,0.241 0.343,0.381 0.114,0.14 0.222,0.278 0.323,0.418 l 0.457,0.514 0.628,0.97 c 0.012,0.013 0.019,0.026 0.019,0.038 0,0.013 0.012,0.032 0.038,0.057 l 0.19,0.267 c 0.038,0.05 0.152,0.221 0.343,0.513 0.19,0.292 0.396,0.612 0.618,0.96 0.221,0.35 0.427,0.689 0.618,1.019 0.19,0.329 0.31,0.564 0.361,0.703 z M 3.52,5.403 C 3.494,5.365 3.402,5.279 3.244,5.146 3.085,5.013 2.907,4.87 2.711,4.718 2.514,4.566 2.324,4.423 2.14,4.29 1.956,4.157 1.833,4.071 1.769,4.033 1.706,3.982 1.607,3.941 1.474,3.91 1.341,3.878 1.205,3.9 1.065,3.977 0.685,3.989 0.38,4.103 0.152,4.318 0.114,4.382 0.092,4.471 0.085,4.585 0.079,4.699 0.088,4.807 0.114,4.908 0.14,4.984 0.168,5.063 0.2,5.146 0.231,5.229 0.26,5.308 0.285,5.384 0.311,5.409 0.323,5.435 0.323,5.46 0.323,5.485 0.33,5.505 0.342,5.518 0.355,5.542 0.368,5.562 0.38,5.574 0.393,5.587 0.406,5.605 0.418,5.631 0.444,5.682 0.463,5.729 0.476,5.774 0.488,5.818 0.514,5.866 0.552,5.917 0.59,5.993 0.64,6.085 0.704,6.192 0.767,6.3 0.834,6.411 0.904,6.525 0.973,6.64 1.043,6.747 1.113,6.849 1.183,6.95 1.236,7.032 1.274,7.096 1.338,7.172 1.437,7.239 1.569,7.296 1.703,7.353 1.845,7.35 1.998,7.286 2.124,7.235 2.223,7.15 2.292,7.029 2.362,6.909 2.365,6.792 2.302,6.678 L 2.207,6.62 C 2.181,6.582 2.15,6.525 2.112,6.449 2.074,6.373 2.032,6.297 1.988,6.221 1.943,6.145 1.902,6.072 1.864,6.002 1.826,5.933 1.801,5.892 1.788,5.879 1.763,5.79 1.725,5.724 1.674,5.679 1.623,5.635 1.598,5.567 1.598,5.479 1.534,5.391 1.487,5.299 1.456,5.203 1.423,5.108 1.382,5.004 1.332,4.89 1.357,4.864 1.389,4.861 1.427,4.88 1.465,4.898 1.49,4.921 1.503,4.946 c 0.418,0.241 0.809,0.507 1.17,0.799 0.361,0.292 0.726,0.584 1.094,0.875 0.025,0.013 0.038,0.026 0.038,0.038 0,0.013 0.012,0.032 0.038,0.058 l 0.114,0.056 c 0,0.089 0.009,0.163 0.028,0.219 0.019,0.058 0.041,0.117 0.067,0.181 0.127,0.063 0.269,0.096 0.428,0.096 0.159,0 0.308,-0.033 0.447,-0.096 C 5.003,7.096 5.051,7.001 5.07,6.887 5.089,6.772 5.089,6.658 5.07,6.545 5.051,6.431 5.025,6.319 4.994,6.212 4.962,6.104 4.939,6.012 4.927,5.936 4.8,5.491 4.683,5.092 4.575,4.737 4.467,4.382 4.356,4.033 4.242,3.691 4.306,3.678 4.35,3.685 4.375,3.71 4.401,3.735 4.439,3.767 4.49,3.805 4.832,4.021 5.124,4.204 5.365,4.356 5.605,4.509 5.837,4.658 6.059,4.804 6.281,4.949 6.519,5.102 6.772,5.261 7.026,5.419 7.336,5.605 7.705,5.821 8.072,6.037 8.443,6.25 8.817,6.459 9.191,6.668 9.6,6.843 10.044,6.982 10.032,6.956 10.009,6.94 9.978,6.935 9.946,6.928 9.917,6.912 9.892,6.887 9.93,6.861 9.978,6.868 10.035,6.906 10.092,6.944 10.146,6.95 10.197,6.925 10.171,6.836 10.111,6.782 10.016,6.764 9.921,6.744 9.822,6.703 9.721,6.64 9.683,6.589 9.629,6.545 9.559,6.507 9.489,6.469 9.423,6.437 9.359,6.411 L 9.378,6.393 C 9.265,6.316 9.134,6.243 8.989,6.174 8.843,6.104 8.738,6.018 8.675,5.917 8.637,5.904 8.611,5.892 8.599,5.879 8.586,5.866 8.567,5.866 8.542,5.879 8.389,5.777 8.234,5.672 8.076,5.564 7.917,5.457 7.762,5.353 7.609,5.251 7.457,5.137 7.359,5.063 7.314,5.032 7.27,5 7.235,4.975 7.21,4.956 7.185,4.937 7.146,4.911 7.096,4.88 7.045,4.848 6.937,4.775 6.772,4.661 6.722,4.598 6.68,4.572 6.649,4.585 6.617,4.598 6.531,4.534 6.392,4.395 6.164,4.255 5.979,4.141 5.84,4.053 5.701,3.964 5.567,3.872 5.441,3.776 5.314,3.682 5.231,3.608 5.193,3.558 5.168,3.558 5.095,3.514 4.975,3.425 4.854,3.336 4.724,3.234 4.584,3.12 4.445,3.006 4.321,2.895 4.214,2.787 4.106,2.68 4.045,2.606 4.033,2.568 3.995,2.505 3.887,2.413 3.709,2.293 3.532,2.172 3.393,2.023 3.291,1.846 3.177,1.566 3.047,1.281 2.901,0.989 2.755,0.698 2.606,0.419 2.454,0.152 2.302,-0.113 2.156,-0.361 2.017,-0.589 1.877,-0.817 1.769,-1.008 1.693,-1.16 1.68,-1.173 1.61,-1.274 1.484,-1.465 1.357,-1.654 1.189,-1.89 0.98,-2.168 0.771,-2.447 0.539,-2.751 0.285,-3.081 c -0.253,-0.33 -0.504,-0.648 -0.751,-0.951 -0.247,-0.305 -0.482,-0.572 -0.704,-0.8 -0.222,-0.228 -0.396,-0.387 -0.523,-0.476 -0.178,-0.1 -0.311,-0.189 -0.4,-0.265 -0.088,-0.076 -0.202,-0.14 -0.342,-0.191 -0.127,-0.076 -0.276,-0.142 -0.447,-0.2 -0.171,-0.057 -0.339,-0.1 -0.504,-0.133 -0.165,-0.031 -0.314,-0.044 -0.447,-0.038 -0.133,0.007 -0.219,0.035 -0.257,0.086 0.026,0.026 0.013,0.038 -0.038,0.038 -0.051,0 -0.076,0.032 -0.076,0.095 H -4.28 c -0.089,0.102 -0.137,0.251 -0.143,0.447 -0.006,0.197 0.004,0.377 0.028,0.542 -0.024,0.064 0.004,0.191 0.086,0.381 0.083,0.19 0.2,0.418 0.352,0.685 0.152,0.266 0.324,0.551 0.514,0.856 0.19,0.304 0.38,0.589 0.57,0.856 0.191,0.266 0.369,0.503 0.533,0.713 0.165,0.209 0.292,0.359 0.381,0.447 0.139,0.165 0.374,0.406 0.704,0.723 0.329,0.317 0.678,0.644 1.046,0.98 0.368,0.336 0.726,0.646 1.075,0.932 0.348,0.286 0.618,0.485 0.808,0.599 -0.013,0 -0.016,0.003 -0.009,0.01 0.006,0.006 0.022,0.01 0.047,0.01 -0.013,0 -0.019,-0.004 -0.019,-0.01 0,-0.007 -0.006,-0.01 -0.019,-0.01 0.013,0.013 0.025,0.02 0.038,0.02 h 0.019 l 0.78,0.512 c 0.203,0.445 0.39,0.872 0.561,1.285 0.172,0.412 0.321,0.859 0.448,1.341" style="fill:#191919;fill-opacity:1;fill-rule:nonzero;stroke:none" id="path84"/>
        </g>
        <g id="g86" transform="translate(259.2744,367.4515)">
          <path d="m 0,0 c 0.215,0.545 0.418,1.128 0.609,1.75 0.19,0.621 0.368,1.229 0.532,1.826 H 1.123 C 1.084,3.576 1.065,3.563 1.065,3.538 0.735,3.233 0.387,2.917 0.019,2.587 -0.349,2.257 -0.717,1.921 -1.084,1.579 -1.452,1.236 -1.814,0.891 -2.169,0.542 -2.524,0.193 -2.854,-0.146 -3.158,-0.476 -3.754,-1.136 -4.347,-1.805 -4.937,-2.482 -5.526,-3.161 -6.062,-3.9 -6.544,-4.699 c 0.824,0.254 1.718,0.495 2.682,0.722 0.964,0.229 1.896,0.432 2.797,0.61 0.177,0.583 0.345,1.153 0.504,1.712 C -0.403,-1.098 -0.216,-0.546 0,0 m 0.114,-3.12 c 0.444,0.076 0.742,0.127 0.894,0.152 0.152,0.026 0.288,0.041 0.409,0.047 0.121,0.007 0.289,0.013 0.504,0.02 0.216,0.005 0.602,0.035 1.161,0.086 0.19,0.025 0.342,0.034 0.456,0.028 C 3.652,-2.794 3.703,-2.842 3.69,-2.93 3.678,-3.019 3.621,-3.082 3.519,-3.12 3.417,-3.158 3.316,-3.19 3.215,-3.215 2.923,-3.342 2.657,-3.447 2.416,-3.529 2.175,-3.611 1.928,-3.688 1.674,-3.758 1.42,-3.827 1.145,-3.903 0.847,-3.985 0.548,-4.068 0.196,-4.173 -0.209,-4.3 c -0.267,-1.053 -0.533,-2.048 -0.799,-2.986 -0.266,-0.939 -0.552,-1.922 -0.856,-2.949 -0.102,-0.164 -0.184,-0.238 -0.248,-0.219 -0.063,0.019 -0.114,0.076 -0.152,0.172 -0.038,0.094 -0.073,0.193 -0.105,0.295 -0.031,0.101 -0.066,0.152 -0.104,0.152 -0.013,0.367 0.019,0.723 0.095,1.064 0.076,0.343 0.146,0.679 0.209,1.009 0.102,0.571 0.219,1.113 0.352,1.626 0.133,0.514 0.27,1.025 0.409,1.532 -0.875,-0.19 -1.74,-0.418 -2.596,-0.685 -0.856,-0.266 -1.703,-0.532 -2.54,-0.799 -0.102,-0.038 -0.26,-0.089 -0.476,-0.152 -0.215,-0.064 -0.361,-0.12 -0.437,-0.171 -0.051,-0.026 -0.133,-0.073 -0.248,-0.143 -0.114,-0.07 -0.203,-0.136 -0.266,-0.2 -0.393,-0.507 -0.745,-1.023 -1.056,-1.55 -0.31,-0.526 -0.65,-1.055 -1.017,-1.589 -0.394,-0.557 -0.755,-1.103 -1.085,-1.635 -0.329,-0.534 -0.627,-1.123 -0.894,-1.77 -0.051,-0.114 -0.098,-0.231 -0.143,-0.351 -0.044,-0.121 -0.104,-0.226 -0.18,-0.315 -0.076,-0.088 -0.172,-0.161 -0.286,-0.219 -0.114,-0.056 -0.253,-0.085 -0.418,-0.085 -0.254,-0.012 -0.469,0.07 -0.647,0.247 -0.178,0.178 -0.298,0.356 -0.362,0.533 -0.024,0.089 -0.024,0.165 0,0.228 0.026,0.064 0.064,0.124 0.115,0.181 0.05,0.058 0.108,0.108 0.171,0.152 0.064,0.045 0.114,0.086 0.152,0.124 0.14,0.178 0.279,0.365 0.419,0.561 0.139,0.197 0.272,0.396 0.399,0.599 0.482,0.799 0.986,1.592 1.512,2.378 0.527,0.786 1.056,1.573 1.589,2.359 -0.216,-0.075 -0.384,-0.126 -0.504,-0.152 -0.121,-0.025 -0.229,-0.045 -0.323,-0.057 -0.096,-0.013 -0.194,-0.026 -0.295,-0.038 -0.102,-0.013 -0.248,-0.044 -0.438,-0.095 -0.114,-0.038 -0.222,-0.079 -0.323,-0.124 -0.102,-0.044 -0.209,-0.066 -0.324,-0.066 -0.418,-0.064 -0.777,-0.136 -1.074,-0.219 -0.299,-0.082 -0.612,-0.168 -0.942,-0.257 -0.165,-0.051 -0.266,-0.054 -0.304,-0.01 -0.039,0.045 -0.029,0.109 0.028,0.191 0.057,0.083 0.149,0.174 0.276,0.276 0.127,0.102 0.279,0.189 0.456,0.266 0.33,0.139 0.669,0.259 1.018,0.361 0.349,0.101 0.688,0.21 1.018,0.324 0.444,0.177 0.894,0.342 1.35,0.494 0.457,0.153 0.914,0.292 1.37,0.419 0.634,0.849 1.278,1.696 1.931,2.539 0.653,0.844 1.328,1.674 2.026,2.492 0.697,0.819 1.417,1.611 2.159,2.378 0.742,0.768 1.525,1.494 2.349,2.178 C -0.019,4.197 0.26,4.4 0.59,4.604 0.919,4.806 1.268,4.927 1.636,4.965 1.801,4.978 1.937,4.949 2.045,4.879 2.152,4.81 2.245,4.718 2.321,4.604 2.346,4.578 2.359,4.553 2.359,4.527 2.359,4.502 2.371,4.47 2.397,4.433 2.447,4.33 2.492,4.264 2.53,4.232 2.568,4.2 2.574,4.103 2.549,3.938 2.523,3.785 2.485,3.63 2.435,3.472 2.384,3.313 2.333,3.157 2.283,3.006 2.13,2.473 1.962,1.952 1.779,1.445 1.595,0.938 1.408,0.431 1.217,-0.076 1.027,-0.584 0.837,-1.088 0.647,-1.589 0.457,-2.09 0.279,-2.601 0.114,-3.12" style="fill:#191919;fill-opacity:1;fill-rule:nonzero;stroke:none" id="path88"/>
        </g>
        <g id="g90" transform="translate(267.207,371.9408)">
          <path d="m 0,0 c 0.063,-0.063 0.108,-0.114 0.133,-0.152 0.026,-0.038 0.026,-0.108 0,-0.209 0,-0.089 -0.022,-0.175 -0.066,-0.257 -0.045,-0.083 -0.086,-0.155 -0.124,-0.219 -0.026,-0.114 -0.06,-0.213 -0.105,-0.295 -0.044,-0.083 -0.079,-0.187 -0.104,-0.314 -0.127,-0.329 -0.251,-0.662 -0.371,-0.998 -0.121,-0.336 -0.251,-0.651 -0.39,-0.942 -0.14,-0.178 -0.244,-0.362 -0.314,-0.552 -0.07,-0.19 -0.137,-0.387 -0.2,-0.589 -0.33,-0.799 -0.659,-1.612 -0.989,-2.436 -0.33,-0.824 -0.64,-1.674 -0.932,-2.549 -0.038,-0.228 -0.099,-0.457 -0.181,-0.684 -0.083,-0.229 -0.149,-0.464 -0.2,-0.704 0,-0.089 -0.012,-0.165 -0.037,-0.229 -0.064,-0.203 -0.089,-0.418 -0.077,-0.646 -0.064,0 -0.107,-0.023 -0.133,-0.067 -0.025,-0.045 -0.063,-0.073 -0.114,-0.086 -0.102,0 -0.168,0.041 -0.2,0.124 -0.032,0.082 -0.085,0.117 -0.161,0.105 -0.026,0.063 -0.061,0.114 -0.105,0.152 -0.045,0.038 -0.073,0.095 -0.086,0.171 0.013,0.178 0.038,0.367 0.076,0.57 0.038,0.203 0.083,0.381 0.134,0.534 0.088,0.544 0.209,1.061 0.361,1.549 0.152,0.489 0.305,0.961 0.456,1.418 -0.012,0 -0.025,-0.007 -0.038,-0.019 l 0.019,0.019 v 0.038 c 0.051,0.025 0.083,0.067 0.096,0.123 0.012,0.058 0.031,0.112 0.057,0.163 0.05,0.177 0.126,0.402 0.228,0.674 0.101,0.273 0.209,0.552 0.324,0.837 0.114,0.286 0.225,0.562 0.333,0.828 0.107,0.267 0.192,0.476 0.256,0.628 v 0.019 c 0.152,0.317 0.288,0.641 0.409,0.971 0.121,0.329 0.244,0.665 0.371,1.007 0.101,0.254 0.196,0.517 0.285,0.789 0.089,0.274 0.172,0.531 0.248,0.771 0.063,0.19 0.107,0.381 0.133,0.571 0.025,0.076 0.117,0.14 0.276,0.191 0.158,0.049 0.288,0.062 0.39,0.038 C -0.241,0.316 -0.168,0.278 -0.124,0.229 -0.079,0.178 -0.038,0.102 0,0" style="fill:#191919;fill-opacity:1;fill-rule:nonzero;stroke:none" id="path92"/>
        </g>
        <g id="g94" transform="translate(266.313,363.0951)">
          <path d="m 0,0 c 0.723,0.875 1.379,1.743 1.969,2.606 0.59,0.863 1.17,1.789 1.74,2.778 C 3.811,5.675 3.941,5.957 4.1,6.229 4.258,6.503 4.369,6.811 4.433,7.152 4.407,7.165 4.381,7.172 4.356,7.172 H 4.299 C 4.083,6.981 3.862,6.781 3.633,6.572 3.405,6.363 3.215,6.138 3.063,5.897 H 3.024 C 3.012,5.871 2.964,5.789 2.882,5.649 2.799,5.51 2.708,5.357 2.606,5.193 2.504,5.028 2.406,4.873 2.311,4.728 2.216,4.581 2.149,4.489 2.111,4.451 2.111,4.4 2.067,4.344 1.979,4.28 1.979,4.255 1.956,4.191 1.912,4.09 1.867,3.988 1.817,3.884 1.76,3.776 1.703,3.668 1.646,3.563 1.588,3.462 1.531,3.36 1.496,3.297 1.484,3.271 1.458,3.208 1.423,3.145 1.379,3.082 1.334,3.018 1.287,2.974 1.236,2.948 L 1.293,2.91 C 1.255,2.91 1.224,2.885 1.198,2.834 1.173,2.783 1.154,2.727 1.141,2.663 1.128,2.6 1.09,2.555 1.027,2.53 1.065,2.479 1.059,2.444 1.008,2.425 0.958,2.406 0.944,2.371 0.97,2.32 H 0.913 C 0.963,2.282 0.96,2.244 0.903,2.206 0.847,2.168 0.824,2.137 0.837,2.111 0.824,2.111 0.814,2.108 0.809,2.102 0.802,2.096 0.792,2.093 0.78,2.093 0.678,1.852 0.577,1.61 0.476,1.369 0.374,1.128 0.282,0.909 0.2,0.713 0.117,0.517 0.057,0.354 0.019,0.229 -0.019,0.102 -0.026,0.025 0,0 m -1.389,-0.305 c -0.05,0.026 -0.079,0.029 -0.086,0.01 -0.006,-0.019 0.01,-0.048 0.048,-0.086 z m 0.115,-2.777 c -0.077,-0.14 -0.137,-0.282 -0.182,-0.428 -0.044,-0.145 -0.085,-0.302 -0.123,-0.467 -0.139,-0.456 -0.273,-0.903 -0.4,-1.34 -0.126,-0.438 -0.228,-0.911 -0.304,-1.417 -0.038,-0.318 -0.067,-0.647 -0.086,-0.99 -0.019,-0.342 0.029,-0.697 0.143,-1.065 0.102,-0.305 0.241,-0.476 0.419,-0.514 0.266,0.229 0.491,0.479 0.675,0.752 0.184,0.273 0.345,0.561 0.485,0.865 0.444,0.875 0.78,1.801 1.008,2.778 0.064,0.304 0.111,0.643 0.143,1.017 0.032,0.374 -0.009,0.745 -0.124,1.114 -0.063,0.253 -0.152,0.463 -0.266,0.628 -0.114,0.164 -0.228,0.329 -0.343,0.494 -0.063,0.063 -0.123,0.133 -0.18,0.209 -0.057,0.076 -0.136,0.101 -0.238,0.076 -0.14,-0.254 -0.247,-0.529 -0.323,-0.827 -0.076,-0.298 -0.178,-0.593 -0.304,-0.885 M 0.304,-0.59 0.228,-0.628 c 0.038,-0.038 0.064,-0.058 0.076,-0.058 0.013,0 0.022,0.01 0.029,0.03 0.006,0.018 0.022,0.038 0.047,0.056 0.026,0.02 0.064,0.029 0.115,0.029 0.494,-0.038 0.909,-0.035 1.246,0.009 0.336,0.044 0.646,0.125 0.932,0.239 0.285,0.113 0.574,0.257 0.865,0.427 0.292,0.171 0.647,0.365 1.066,0.581 L 5.155,0.951 C 5.257,0.977 5.342,1.002 5.412,1.027 5.481,1.053 5.561,1.065 5.65,1.065 5.663,0.964 5.625,0.881 5.536,0.817 5.447,0.754 5.402,0.672 5.402,0.57 L 5.117,0.418 C 5.092,0.405 5.092,0.396 5.117,0.39 5.143,0.383 5.155,0.367 5.155,0.342 4.978,0.253 4.819,0.168 4.68,0.085 4.54,0.003 4.395,-0.089 4.242,-0.19 4.141,-0.267 4.036,-0.327 3.928,-0.371 3.82,-0.416 3.735,-0.482 3.671,-0.571 3.341,-0.686 3.072,-0.796 2.863,-0.904 2.654,-1.012 2.454,-1.101 2.264,-1.17 2.073,-1.24 1.864,-1.294 1.636,-1.332 1.408,-1.37 1.104,-1.376 0.723,-1.351 0.9,-1.579 1.037,-1.833 1.132,-2.112 1.227,-2.391 1.296,-2.676 1.341,-2.968 1.385,-3.26 1.404,-3.542 1.398,-3.814 1.392,-4.087 1.37,-4.325 1.332,-4.527 1.332,-4.553 1.344,-4.562 1.37,-4.557 1.395,-4.55 1.401,-4.565 1.389,-4.604 1.312,-5.035 1.211,-5.463 1.084,-5.888 0.958,-6.312 0.805,-6.734 0.628,-7.153 0.526,-7.344 0.425,-7.54 0.323,-7.743 0.222,-7.945 0.107,-8.136 -0.019,-8.313 -0.171,-8.504 -0.33,-8.682 -0.495,-8.846 -0.596,-8.973 -0.691,-9.084 -0.78,-9.179 c -0.089,-0.095 -0.197,-0.2 -0.324,-0.314 -0.05,-0.026 -0.088,-0.06 -0.114,-0.105 -0.025,-0.044 -0.089,-0.079 -0.19,-0.104 -0.026,-0.013 -0.057,-0.016 -0.095,-0.01 -0.038,0.007 -0.069,0.004 -0.095,-0.01 -0.089,-0.024 -0.162,-0.056 -0.219,-0.094 -0.057,-0.038 -0.136,-0.07 -0.238,-0.095 -0.101,-0.026 -0.199,-0.016 -0.295,0.028 -0.095,0.045 -0.187,0.086 -0.275,0.124 -0.051,0.026 -0.099,0.047 -0.143,0.067 -0.045,0.018 -0.079,0.041 -0.105,0.066 -0.088,0.076 -0.168,0.193 -0.237,0.352 -0.07,0.159 -0.124,0.301 -0.162,0.428 -0.076,0.355 -0.108,0.713 -0.095,1.075 0.013,0.361 0.051,0.707 0.114,1.037 0.064,0.482 0.165,1.002 0.304,1.559 0.14,0.559 0.299,1.119 0.476,1.684 0.178,0.564 0.358,1.116 0.542,1.655 0.184,0.539 0.352,1.024 0.504,1.455 l 0.057,-0.056 0.038,0.152 0.076,0.151 0.076,0.324 0.229,0.4 0.076,0.399 c 0.088,0.153 0.168,0.304 0.238,0.456 0.069,0.153 0.136,0.305 0.2,0.457 0.025,0 0.034,0.009 0.028,0.029 -0.007,0.018 0.003,0.021 0.029,0.009 -0.014,0.039 -0.01,0.077 0.009,0.115 0.019,0.038 0.041,0.069 0.066,0.094 l 0.057,0.191 c 0.039,0.076 0.083,0.148 0.134,0.219 0.051,0.069 0.095,0.142 0.133,0.218 0.038,0.102 0.085,0.202 0.143,0.305 0.057,0.101 0.123,0.202 0.199,0.304 0.026,0 0.035,0.007 0.029,0.019 C 0.383,3.417 0.387,3.437 0.399,3.462 0.425,3.538 0.466,3.62 0.523,3.709 0.58,3.798 0.634,3.874 0.685,3.938 0.723,4.014 0.761,4.096 0.799,4.185 0.837,4.273 0.9,4.344 0.989,4.395 1.09,4.609 1.205,4.806 1.332,4.984 1.458,5.161 1.591,5.339 1.731,5.517 l 0.342,0.532 c 0,0.013 0.01,0.019 0.029,0.019 0.019,0 0.035,0.006 0.047,0.019 l 0.134,0.21 c 0.088,0.076 0.164,0.155 0.228,0.237 0.063,0.082 0.133,0.155 0.209,0.219 0,0.025 0.01,0.038 0.029,0.038 0.019,0 0.016,0.013 -0.01,0.038 C 2.854,6.943 2.958,7.051 3.053,7.152 3.148,7.254 3.234,7.362 3.31,7.476 3.424,7.552 3.538,7.65 3.652,7.771 3.767,7.892 3.931,7.938 4.147,7.913 4.172,7.926 4.21,7.936 4.261,7.942 4.312,7.948 4.356,7.971 4.395,8.009 L 5.27,7.78 C 5.294,7.729 5.336,7.676 5.393,7.618 5.45,7.562 5.498,7.501 5.536,7.437 5.637,7.298 5.644,7.149 5.555,6.991 5.466,6.832 5.415,6.684 5.402,6.544 5.377,6.519 5.365,6.496 5.365,6.478 5.365,6.458 5.346,6.448 5.308,6.448 5.294,6.397 5.289,6.366 5.289,6.354 5.187,6.188 5.092,6.023 5.003,5.859 4.914,5.694 4.819,5.522 4.718,5.346 4.692,5.346 4.683,5.336 4.689,5.316 4.695,5.298 4.692,5.288 4.68,5.288 4.68,5.263 4.673,5.247 4.661,5.24 4.648,5.234 4.654,5.219 4.68,5.193 4.667,5.181 4.654,5.174 4.642,5.174 H 4.623 C 4.623,5.123 4.604,5.085 4.565,5.06 4.527,5.034 4.502,4.99 4.489,4.927 4.337,4.686 4.195,4.444 4.062,4.204 3.928,3.963 3.76,3.734 3.557,3.52 3.494,3.379 3.415,3.249 3.319,3.129 3.225,3.009 3.126,2.885 3.024,2.758 2.999,2.694 2.971,2.625 2.939,2.549 2.907,2.473 2.86,2.422 2.796,2.396 2.809,2.358 2.796,2.327 2.758,2.302 2.72,2.276 2.701,2.251 2.701,2.226 2.676,2.2 2.66,2.181 2.654,2.168 2.647,2.155 2.631,2.143 2.606,2.131 2.428,1.89 2.254,1.642 2.083,1.389 1.912,1.135 1.734,0.885 1.55,0.637 1.366,0.39 1.167,0.158 0.951,-0.058 0.735,-0.273 0.488,-0.457 0.209,-0.609 c 0.013,0 0.025,0.003 0.038,0.009 0.013,0.007 0.032,0.01 0.057,0.01" style="fill:#191919;fill-opacity:1;fill-rule:nonzero;stroke:none" id="path96"/>
        </g>
        <g id="g98" transform="translate(275.8818,364.9779)">
          <path d="m 0,0 c -0.026,-0.038 -0.035,-0.069 -0.029,-0.095 0.007,-0.025 -0.016,-0.051 -0.066,-0.076 0,-0.025 -0.019,-0.038 -0.057,-0.038 -0.026,-0.063 -0.074,-0.102 -0.143,-0.114 -0.07,-0.013 -0.13,-0.051 -0.181,-0.114 -0.253,-0.077 -0.52,-0.171 -0.799,-0.286 -0.279,-0.114 -0.548,-0.237 -0.808,-0.371 -0.26,-0.133 -0.498,-0.269 -0.713,-0.409 -0.216,-0.14 -0.381,-0.278 -0.495,-0.418 -0.102,-0.101 -0.209,-0.209 -0.324,-0.323 -0.114,-0.114 -0.216,-0.241 -0.304,-0.381 -0.038,-0.102 -0.08,-0.229 -0.123,-0.381 -0.045,-0.151 -0.086,-0.301 -0.125,-0.446 -0.038,-0.147 -0.079,-0.277 -0.123,-0.391 -0.044,-0.114 -0.085,-0.183 -0.124,-0.209 -0.025,-0.051 -0.076,-0.121 -0.152,-0.209 -0.076,-0.089 -0.14,-0.127 -0.19,-0.114 -0.19,-0.089 -0.352,-0.076 -0.485,0.038 -0.134,0.114 -0.181,0.273 -0.143,0.476 0.026,0.127 0.083,0.316 0.172,0.57 0.088,0.254 0.145,0.45 0.17,0.59 v 0.019 c 0.013,0.038 0.02,0.077 0.02,0.114 0.101,0.177 0.183,0.362 0.247,0.551 0.063,0.191 0.139,0.374 0.228,0.552 0,0.013 0.01,0.023 0.029,0.029 0.019,0.006 0.028,0.016 0.028,0.029 0.064,0.253 0.143,0.504 0.238,0.751 0.095,0.247 0.181,0.485 0.257,0.714 0.013,0.049 0.032,0.088 0.057,0.114 0.025,0.024 0.05,0.057 0.076,0.095 0.063,0.025 0.117,0.05 0.162,0.076 0.044,0.025 0.092,0.038 0.142,0.038 0.026,0.025 0.058,0.038 0.096,0.038 0.025,0 0.053,-0.004 0.085,-0.01 0.032,-0.007 0.06,-0.01 0.086,-0.01 0.114,-0.012 0.196,-0.056 0.247,-0.132 0.152,-0.204 0.14,-0.394 -0.038,-0.571 -0.013,-0.101 -0.035,-0.203 -0.066,-0.304 -0.032,-0.102 -0.055,-0.191 -0.067,-0.267 0.444,0.33 0.881,0.559 1.313,0.685 0.43,0.127 0.83,0.203 1.198,0.228 0.101,0.013 0.219,0.025 0.352,0.038 C -0.219,0.089 -0.102,0.063 0,0" style="fill:#191919;fill-opacity:1;fill-rule:nonzero;stroke:none" id="path100"/>
        </g>
        <g id="g102" transform="translate(276.4141,363.0375)">
          <path d="M 0,0 C 0.114,0 0.225,0.032 0.333,0.096 0.44,0.159 0.545,0.222 0.646,0.286 0.9,0.488 1.16,0.714 1.427,0.961 1.693,1.208 1.934,1.459 2.149,1.713 2.174,1.713 2.188,1.731 2.188,1.77 1.731,1.604 1.328,1.363 0.979,1.047 0.631,0.729 0.304,0.381 0,0 M 1.37,-1.959 C 1.268,-2.022 1.157,-2.07 1.037,-2.102 0.916,-2.134 0.799,-2.168 0.685,-2.206 0.533,-2.244 0.361,-2.282 0.171,-2.32 c -0.19,-0.038 -0.38,-0.055 -0.57,-0.048 -0.191,0.006 -0.372,0.044 -0.543,0.114 -0.171,0.069 -0.314,0.187 -0.428,0.352 -0.088,0.114 -0.139,0.254 -0.152,0.419 -0.013,0.165 0,0.333 0.038,0.504 0.038,0.17 0.092,0.342 0.162,0.513 0.07,0.171 0.142,0.326 0.218,0.466 0.064,0.051 0.115,0.114 0.153,0.19 0.038,0.077 0.063,0.14 0.076,0.191 0.266,0.316 0.542,0.621 0.827,0.913 0.286,0.292 0.581,0.519 0.885,0.685 0.14,0.088 0.285,0.165 0.437,0.228 0.153,0.064 0.292,0.127 0.419,0.19 0.051,0.026 0.092,0.051 0.124,0.077 0.031,0.025 0.078,0.038 0.142,0.038 0.458,0 0.754,-0.08 0.895,-0.239 C 2.993,2.115 3.063,1.96 3.063,1.808 3.049,1.757 3.006,1.699 2.93,1.637 2.854,1.572 2.795,1.51 2.758,1.446 2.694,1.383 2.637,1.322 2.586,1.266 2.536,1.208 2.499,1.154 2.473,1.104 1.965,0.659 1.458,0.267 0.951,-0.076 0.824,-0.178 0.656,-0.247 0.447,-0.285 0.238,-0.323 0.025,-0.33 -0.19,-0.304 -0.267,-0.38 -0.342,-0.479 -0.418,-0.599 c -0.077,-0.121 -0.137,-0.248 -0.181,-0.38 -0.045,-0.133 -0.064,-0.267 -0.057,-0.4 0.006,-0.133 0.06,-0.244 0.161,-0.333 0.254,-0.025 0.476,0 0.666,0.076 0.19,0.076 0.374,0.14 0.552,0.191 0.139,0.038 0.285,0.082 0.437,0.133 0.152,0.05 0.286,0.101 0.4,0.152 0.267,0.127 0.485,0.228 0.656,0.305 0.171,0.076 0.333,0.145 0.486,0.209 0.152,0.063 0.31,0.132 0.474,0.209 0.166,0.076 0.375,0.183 0.629,0.323 0.201,0.101 0.408,0.206 0.617,0.314 0.209,0.108 0.411,0.212 0.6,0.314 0.039,0.025 0.055,0.041 0.047,0.048 -0.006,0.005 -0.016,0.005 -0.027,0 -0.014,-0.007 -0.02,-0.013 -0.02,-0.02 0,-0.006 0.025,-0.003 0.076,0.01 0.012,0 0.029,0.007 0.047,0.019 C 5.165,0.584 5.18,0.59 5.194,0.59 5.307,0.59 5.383,0.58 5.422,0.562 5.459,0.542 5.475,0.511 5.469,0.467 5.463,0.422 5.438,0.371 5.393,0.314 5.348,0.257 5.301,0.19 5.25,0.114 5.262,0.114 5.247,0.099 5.204,0.066 5.159,0.035 5.108,0.003 5.051,-0.028 4.993,-0.06 4.92,-0.107 4.833,-0.171 4.692,-0.272 4.52,-0.38 4.319,-0.494 4.116,-0.608 3.913,-0.72 3.709,-0.827 3.506,-0.936 3.317,-1.033 3.139,-1.122 2.961,-1.211 2.829,-1.274 2.739,-1.312 Z" style="fill:#191919;fill-opacity:1;fill-rule:nonzero;stroke:none" id="path104"/>
        </g>
        <g id="g106" transform="translate(290.2437,362.6381)">
          <path d="M 0,0 C -0.025,0 -0.045,-0.006 -0.058,-0.019 -0.045,-0.006 -0.025,0 0,0 M -5.974,-0.038 -5.936,0 c -0.012,-0.013 -0.025,-0.019 -0.038,-0.019 z m -0.038,-0.019 c 0.013,0 0.02,0.003 0.02,0.01 0,0.006 0.006,0.009 0.018,0.009 -0.012,0 -0.018,-0.003 -0.018,-0.009 0,-0.007 -0.007,-0.01 -0.02,-0.01 m 0,0 c 0,-0.012 -0.006,-0.019 -0.018,-0.019 l -0.038,-0.038 0.018,0.019 z m 4.452,-0.951 c -0.102,-0.063 -0.146,-0.093 -0.133,-0.086 0.012,0.007 -0.007,-0.035 -0.057,-0.123 -0.089,-0.052 -0.219,-0.124 -0.391,-0.22 -0.171,-0.094 -0.361,-0.183 -0.57,-0.265 -0.209,-0.083 -0.422,-0.143 -0.638,-0.181 -0.215,-0.038 -0.405,-0.025 -0.57,0.038 -0.216,0.012 -0.39,0.064 -0.523,0.153 -0.133,0.088 -0.257,0.196 -0.371,0.323 0.012,0.063 -0.006,0.126 -0.057,0.189 -0.051,0.064 -0.083,0.14 -0.095,0.229 l -0.019,0.019 c -0.038,0.115 -0.07,0.228 -0.095,0.342 -0.013,0.038 -0.017,0.073 -0.01,0.105 0.006,0.032 0.01,0.073 0.01,0.124 0.012,0.025 0.012,0.053 0,0.086 -0.013,0.031 -0.02,0.072 -0.02,0.123 -0.025,0.215 -0.041,0.383 -0.047,0.505 -0.006,0.12 -0.003,0.281 0.009,0.484 C -5.213,0.773 -5.276,0.701 -5.327,0.618 -5.378,0.536 -5.467,0.47 -5.593,0.419 -5.58,0.394 -5.593,0.361 -5.631,0.323 L -5.707,0.267 -5.765,0.152 C -5.79,0.127 -5.806,0.111 -5.812,0.104 -5.818,0.099 -5.828,0.089 -5.84,0.076 -5.866,0.051 -5.885,0.038 -5.897,0.038 -5.859,0.063 -5.834,0.086 -5.821,0.104 -5.809,0.124 -5.815,0.121 -5.84,0.096 -5.866,0.083 -5.882,0.069 -5.888,0.058 -5.895,0.045 -5.904,0.032 -5.916,0.02 L -5.954,0 -5.974,-0.019 -6.03,-0.076 h -0.02 c -0.025,-0.026 -0.038,-0.041 -0.038,-0.047 0,-0.007 0.007,-0.004 0.02,0.009 -0.33,-0.329 -0.657,-0.641 -0.98,-0.932 -0.324,-0.292 -0.67,-0.577 -1.037,-0.856 -0.063,-0.013 -0.121,-0.035 -0.171,-0.067 -0.051,-0.032 -0.127,-0.048 -0.228,-0.048 0.012,0 -0.007,-0.012 -0.058,-0.038 -0.151,-0.025 -0.298,-0.047 -0.437,-0.066 -0.14,-0.019 -0.279,-0.01 -0.418,0.028 v 0.02 c 0,0.012 -0.013,0.018 -0.039,0.018 -0.127,0.013 -0.247,0.061 -0.361,0.143 -0.114,0.083 -0.184,0.175 -0.21,0.276 -0.038,0.051 -0.059,0.098 -0.066,0.143 -0.006,0.044 -0.016,0.098 -0.029,0.162 -0.038,0.189 -0.025,0.374 0.039,0.552 0.063,0.176 0.132,0.342 0.209,0.494 0.063,0.178 0.165,0.339 0.304,0.485 0.14,0.146 0.267,0.288 0.381,0.428 0.24,0.178 0.497,0.349 0.77,0.514 0.273,0.165 0.53,0.354 0.77,0.57 0.178,0.076 0.343,0.155 0.495,0.238 0.153,0.082 0.336,0.149 0.552,0.199 0.089,-0.012 0.161,-0.015 0.219,-0.008 0.056,0.005 0.135,0.003 0.237,-0.01 C -6.024,2.093 -5.954,2.036 -5.916,1.96 -5.878,1.884 -5.885,1.808 -5.936,1.731 -6.189,1.604 -6.437,1.49 -6.678,1.389 -6.918,1.287 -7.146,1.18 -7.362,1.065 -7.578,0.951 -7.762,0.806 -7.914,0.628 -8.066,0.45 -8.231,0.272 -8.408,0.096 -8.408,0.058 -8.44,0.025 -8.504,0 c -0.051,-0.165 -0.133,-0.298 -0.247,-0.399 0,-0.026 -0.01,-0.041 -0.028,-0.048 -0.02,-0.006 -0.023,-0.022 -0.01,-0.047 -0.102,-0.102 -0.181,-0.216 -0.237,-0.343 -0.058,-0.127 -0.099,-0.279 -0.124,-0.456 0.012,-0.026 0.028,-0.045 0.047,-0.058 0.019,-0.012 0.041,-0.031 0.067,-0.056 0.025,0.025 0.072,0.031 0.142,0.018 0.07,-0.012 0.13,-0.006 0.181,0.02 0.064,0.025 0.124,0.057 0.181,0.095 0.057,0.038 0.117,0.076 0.18,0.114 0.14,0.101 0.283,0.209 0.428,0.323 0.147,0.114 0.289,0.229 0.429,0.343 0.367,0.329 0.72,0.666 1.056,1.008 0.335,0.342 0.674,0.697 1.017,1.065 0.038,0.038 0.041,0.044 0.01,0.02 C -5.444,1.572 -5.482,1.541 -5.526,1.503 -5.571,1.465 -5.609,1.437 -5.641,1.417 c -0.032,-0.019 -0.028,-0.003 0.01,0.048 0.088,0.076 0.171,0.165 0.247,0.266 0.076,0.102 0.153,0.191 0.229,0.267 0.101,0.114 0.196,0.234 0.285,0.361 0.089,0.126 0.183,0.253 0.285,0.38 0.013,0.026 0.031,0.041 0.058,0.048 0.025,0.006 0.038,0.016 0.038,0.028 0.024,0.051 0.041,0.096 0.047,0.134 0.006,0.038 0.022,0.07 0.047,0.095 0.026,0.152 0.07,0.301 0.133,0.447 0.064,0.146 0.115,0.288 0.153,0.428 0.127,0.254 0.241,0.514 0.342,0.78 0.102,0.267 0.222,0.52 0.362,0.761 0.139,0.305 0.282,0.573 0.427,0.809 0.146,0.234 0.289,0.478 0.429,0.732 0.126,0.14 0.222,0.282 0.285,0.428 0.064,0.145 0.146,0.269 0.247,0.371 0.077,0.025 0.143,0.063 0.201,0.114 0.056,0.051 0.129,0.076 0.218,0.076 0.025,0 0.054,-0.007 0.085,-0.019 0.032,-0.013 0.061,-0.006 0.086,0.019 0.076,-0.025 0.13,-0.083 0.161,-0.171 0.033,-0.089 0.051,-0.187 0.058,-0.295 0.006,-0.108 0,-0.212 -0.02,-0.314 C -1.246,7.108 -1.274,7.032 -1.312,6.981 -1.274,6.931 -1.266,6.864 -1.284,6.782 -1.304,6.699 -1.332,6.627 -1.37,6.563 -1.332,6.475 -1.345,6.408 -1.408,6.363 -1.472,6.319 -1.49,6.266 -1.465,6.202 -1.516,6.177 -1.541,6.145 -1.541,6.106 -1.541,6.068 -1.56,6.037 -1.598,6.012 -1.573,5.923 -1.592,5.847 -1.655,5.783 -1.668,5.758 -1.687,5.72 -1.712,5.669 -1.738,5.618 -1.757,5.562 -1.77,5.498 -1.833,5.473 -1.864,5.437 -1.864,5.394 -1.864,5.349 -1.877,5.314 -1.902,5.289 -1.928,5.226 -1.957,5.171 -1.988,5.127 -2.02,5.082 -2.042,5.028 -2.055,4.966 -2.118,4.939 -2.159,4.896 -2.179,4.832 -2.197,4.769 -2.232,4.712 -2.283,4.661 -2.283,4.636 -2.289,4.616 -2.302,4.604 -2.314,4.591 -2.309,4.578 -2.283,4.565 -2.41,4.388 -2.524,4.22 -2.625,4.062 -2.727,3.903 -2.81,3.735 -2.873,3.558 -2.937,3.456 -2.99,3.336 -3.034,3.196 -3.079,3.057 -3.113,2.937 -3.139,2.835 -3.165,2.797 -3.196,2.714 -3.234,2.588 -3.247,2.55 -3.263,2.508 -3.281,2.464 -3.301,2.419 -3.323,2.359 -3.349,2.283 -3.361,2.258 -3.377,2.226 -3.396,2.188 -3.415,2.149 -3.425,2.105 -3.425,2.055 -3.425,2.017 -3.431,1.979 -3.443,1.94 V 1.922 c 0,-0.013 0.005,-0.026 0.018,-0.038 C -3.488,1.706 -3.555,1.548 -3.624,1.408 -3.694,1.269 -3.761,1.129 -3.824,0.989 -3.888,0.85 -3.938,0.701 -3.976,0.542 -4.014,0.384 -4.04,0.196 -4.052,-0.019 c 0.012,0 0.019,-0.003 0.019,-0.009 0,-0.007 -0.007,-0.01 -0.019,-0.01 0,-0.191 -0.004,-0.361 -0.01,-0.514 -0.006,-0.152 0.041,-0.316 0.143,-0.494 0.254,-0.063 0.498,-0.055 0.732,0.028 0.235,0.082 0.435,0.163 0.6,0.239 0.088,0.038 0.225,0.1 0.408,0.189 0.185,0.089 0.394,0.188 0.628,0.295 0.235,0.108 0.486,0.219 0.752,0.333 C -0.533,0.152 -0.267,0.254 0,0.343 0.038,0.292 0.066,0.247 0.086,0.21 0.104,0.172 0.082,0.121 0.019,0.058 -0.007,0.058 -0.028,0.048 -0.048,0.028 -0.066,0.01 -0.083,0 -0.096,0 c 0,-0.013 0.013,-0.019 0.038,-0.019 v -0.019 c -0.05,-0.025 -0.104,-0.057 -0.161,-0.095 -0.057,-0.038 -0.124,-0.07 -0.2,-0.096 0,-0.012 -0.003,-0.018 -0.009,-0.018 -0.007,0 -0.009,-0.013 -0.009,-0.038 -0.102,0 -0.171,-0.026 -0.209,-0.076 -0.039,-0.051 -0.089,-0.089 -0.153,-0.115 -0.089,-0.063 -0.172,-0.129 -0.248,-0.199 -0.075,-0.07 -0.164,-0.142 -0.265,-0.219 0,0.026 -0.02,0.032 -0.058,0.019 C -1.408,-0.888 -1.414,-0.9 -1.389,-0.913 -1.452,-0.926 -1.49,-0.941 -1.503,-0.961 -1.516,-0.979 -1.535,-0.995 -1.56,-1.008" style="fill:#191919;fill-opacity:1;fill-rule:nonzero;stroke:none" id="path108"/>
        </g>
        <g id="g110" transform="translate(292.1851,364.4457)">
          <path d="m 0,0 c -0.064,0.025 -0.127,0.038 -0.19,0.038 -0.064,0 -0.122,0.025 -0.172,0.076 L -0.419,0.057 C -0.495,-0.007 -0.556,-0.083 -0.6,-0.171 -0.645,-0.26 -0.698,-0.355 -0.762,-0.457 -0.825,-0.533 -0.907,-0.646 -1.009,-0.799 -1.11,-0.951 -1.212,-1.113 -1.313,-1.284 -1.415,-1.455 -1.507,-1.62 -1.589,-1.779 c -0.083,-0.158 -0.13,-0.283 -0.142,-0.37 -0.039,-0.165 -0.089,-0.343 -0.153,-0.534 -0.063,-0.19 -0.051,-0.374 0.038,-0.551 0.279,0.101 0.524,0.228 0.733,0.38 0.209,0.153 0.402,0.324 0.58,0.514 l 0.114,0.133 c 0.051,0.089 0.146,0.254 0.285,0.495 0.14,0.24 0.257,0.487 0.353,0.741 0.094,0.254 0.138,0.479 0.133,0.676 C 0.345,-0.099 0.228,0 0,0 M 1.369,-0.913 C 1.382,-1.002 1.375,-1.101 1.351,-1.208 1.324,-1.316 1.286,-1.401 1.236,-1.465 1.211,-1.528 1.179,-1.611 1.141,-1.712 1.103,-1.813 1.059,-1.902 1.008,-1.979 0.906,-2.067 0.814,-2.197 0.731,-2.368 0.649,-2.54 0.558,-2.657 0.456,-2.721 0.202,-2.987 -0.014,-3.193 -0.19,-3.339 c -0.178,-0.145 -0.366,-0.275 -0.562,-0.39 -0.196,-0.114 -0.364,-0.159 -0.504,-0.133 -0.203,-0.076 -0.399,-0.105 -0.59,-0.085 -0.19,0.018 -0.361,0.069 -0.513,0.152 -0.153,0.082 -0.28,0.196 -0.381,0.342 -0.102,0.145 -0.165,0.314 -0.19,0.504 -0.012,0.025 -0.019,0.073 -0.019,0.143 0,0.07 0.019,0.117 0.057,0.143 -0.038,0.088 -0.035,0.184 0.009,0.285 0.045,0.102 0.067,0.19 0.067,0.267 l 0.342,0.969 c 0.038,0.013 0.061,0.036 0.067,0.067 0.007,0.031 0.022,0.048 0.048,0.048 0.076,0.177 0.18,0.354 0.313,0.532 0.134,0.178 0.27,0.343 0.409,0.495 0.076,0.102 0.162,0.209 0.257,0.323 0.096,0.114 0.196,0.216 0.305,0.305 0.107,0.088 0.219,0.145 0.333,0.171 0.114,0.025 0.221,-0.007 0.323,-0.095 0.127,-0.026 0.234,-0.064 0.323,-0.114 0.013,-0.026 0.029,-0.026 0.048,0 0.019,0.025 0.041,0.031 0.067,0.018 0.025,0.013 0.073,0.013 0.142,0 C 0.23,0.596 0.304,0.577 0.38,0.552 0.456,0.526 0.525,0.501 0.589,0.476 0.652,0.45 0.697,0.425 0.723,0.399 L 0.913,0.133 C 1.064,0.171 1.303,0.216 1.626,0.267 1.949,0.316 2.289,0.358 2.644,0.39 2.999,0.421 3.329,0.435 3.633,0.428 3.938,0.421 4.159,0.374 4.299,0.285 4.312,0.272 4.327,0.267 4.347,0.267 4.365,0.267 4.381,0.26 4.394,0.247 4.406,0.234 4.419,0.229 4.432,0.229 4.508,0.24 4.549,0.234 4.556,0.209 4.562,0.184 4.591,0.171 4.642,0.171 4.704,0.12 4.718,0.066 4.68,0.01 4.642,-0.048 4.597,-0.089 4.546,-0.114 4.406,-0.127 4.321,-0.146 4.289,-0.171 4.258,-0.197 4.226,-0.219 4.194,-0.238 4.162,-0.257 4.108,-0.27 4.032,-0.276 3.956,-0.282 3.811,-0.285 3.595,-0.285 3.417,-0.285 3.23,-0.298 3.034,-0.323 2.837,-0.349 2.638,-0.387 2.435,-0.437 2.231,-0.488 2.038,-0.536 1.854,-0.58 1.67,-0.625 1.515,-0.666 1.389,-0.704 1.375,-0.755 1.369,-0.796 1.369,-0.828 Z" style="fill:#191919;fill-opacity:1;fill-rule:nonzero;stroke:none" id="path112"/>
        </g>
        <g id="g114" transform="translate(309.4199,359.0052)">
          <path d="m 0,0 c -0.025,-0.038 -0.076,-0.083 -0.152,-0.134 -0.077,-0.051 -0.133,-0.076 -0.171,-0.076 -0.064,-0.088 -0.143,-0.139 -0.239,-0.152 -0.094,-0.012 -0.161,-0.063 -0.199,-0.152 -0.012,0 -0.019,0.003 -0.019,0.009 0,0.007 -0.013,0.01 -0.038,0.01 -0.077,-0.038 -0.174,-0.102 -0.295,-0.191 -0.12,-0.087 -0.244,-0.173 -0.37,-0.256 C -1.61,-1.024 -1.729,-1.101 -1.836,-1.17 -1.943,-1.24 -2.017,-1.275 -2.055,-1.275 -2.08,-1.325 -2.124,-1.363 -2.188,-1.389 -2.251,-1.414 -2.309,-1.439 -2.359,-1.465 -2.448,-1.516 -2.537,-1.57 -2.625,-1.627 -2.714,-1.684 -2.81,-1.731 -2.91,-1.77 c -0.127,-0.114 -0.274,-0.196 -0.439,-0.247 -1.318,-0.837 -2.475,-1.357 -3.471,-1.56 -0.995,-0.202 -1.785,-0.13 -2.368,0.219 -0.583,0.349 -0.949,0.955 -1.094,1.817 -0.146,0.862 -0.035,1.946 0.333,3.253 0,0.038 -0.007,0.057 -0.02,0.057 0.038,0.038 0.055,0.083 0.048,0.133 -0.007,0.05 0.016,0.088 0.067,0.114 -0.026,0.063 -0.019,0.111 0.019,0.143 0.038,0.031 0.057,0.079 0.057,0.143 0.012,0.011 0.041,0.062 0.086,0.151 0.044,0.089 0.086,0.188 0.124,0.295 0.037,0.108 0.075,0.21 0.113,0.305 0.038,0.094 0.058,0.155 0.058,0.18 0.139,0.178 0.252,0.371 0.341,0.58 0.089,0.21 0.191,0.391 0.305,0.542 v 0.077 c 0.089,0.266 0.272,0.63 0.552,1.093 0.279,0.463 0.628,0.971 1.046,1.523 0.419,0.552 0.891,1.125 1.418,1.722 0.525,0.595 1.074,1.163 1.645,1.702 0.57,0.539 1.145,1.024 1.722,1.456 0.576,0.43 1.132,0.76 1.664,0.988 0.533,0.229 1.024,0.327 1.475,0.295 0.45,-0.031 0.833,-0.237 1.15,-0.618 0.089,-0.076 0.165,-0.184 0.228,-0.323 0.064,-0.14 0.118,-0.292 0.163,-0.457 0.043,-0.165 0.072,-0.327 0.084,-0.485 0.013,-0.159 0.013,-0.295 0,-0.409 0,-0.064 -0.018,-0.155 -0.056,-0.275 C 2.302,10.522 2.27,10.431 2.245,10.367 2.219,10.291 2.188,10.218 2.149,10.148 2.111,10.079 2.08,10.012 2.055,9.949 1.966,9.733 1.896,9.581 1.846,9.492 1.819,9.467 1.788,9.451 1.75,9.444 1.712,9.438 1.705,9.423 1.731,9.397 1.667,9.397 1.626,9.385 1.607,9.359 1.589,9.334 1.566,9.314 1.541,9.302 1.49,9.289 1.445,9.289 1.407,9.302 1.37,9.314 1.332,9.314 1.294,9.302 1.04,9.403 0.868,9.562 0.78,9.777 c -0.064,0.153 -0.054,0.286 0.029,0.4 0.082,0.114 0.148,0.221 0.199,0.324 0.025,0.062 0.041,0.12 0.048,0.171 0.006,0.051 0.022,0.107 0.048,0.171 0.063,0.165 0.114,0.33 0.152,0.495 0.038,0.164 0.05,0.316 0.038,0.456 0,0.14 -0.061,0.244 -0.181,0.314 -0.121,0.07 -0.27,0.085 -0.447,0.047 C 0.488,12.117 0.323,12.066 0.171,12.003 0.019,11.939 -0.13,11.87 -0.276,11.794 -0.422,11.718 -0.564,11.642 -0.704,11.565 -0.844,11.489 -0.996,11.42 -1.16,11.356 -1.198,11.28 -1.249,11.229 -1.312,11.204 -1.376,11.179 -1.439,11.141 -1.503,11.09 -1.566,11.064 -1.633,11.021 -1.703,10.957 -1.772,10.894 -1.846,10.843 -1.922,10.805 -1.947,10.779 -1.976,10.764 -2.007,10.757 -2.039,10.751 -2.067,10.735 -2.093,10.71 -2.309,10.52 -2.537,10.329 -2.777,10.139 -2.841,10.075 -2.91,10.021 -2.986,9.978 -3.063,9.933 -3.133,9.879 -3.196,9.815 -3.247,9.739 -3.313,9.67 -3.396,9.606 -3.479,9.543 -3.551,9.479 -3.614,9.416 -3.652,9.391 -3.678,9.359 -3.69,9.321 -3.703,9.283 -3.716,9.251 -3.729,9.226 -3.843,9.124 -3.957,9.022 -4.071,8.922 -4.186,8.82 -4.293,8.712 -4.395,8.599 -4.445,8.561 -4.489,8.516 -4.527,8.465 -4.565,8.414 -4.598,8.363 -4.623,8.313 L -4.699,8.274 C -4.712,8.249 -4.715,8.23 -4.708,8.218 -4.702,8.205 -4.705,8.192 -4.718,8.18 -4.794,8.104 -4.918,7.958 -5.089,7.742 -5.26,7.526 -5.44,7.302 -5.631,7.066 -5.821,6.832 -5.999,6.604 -6.164,6.382 -6.328,6.16 -6.442,5.998 -6.506,5.896 -6.531,5.846 -6.554,5.799 -6.572,5.754 -6.592,5.71 -6.62,5.675 -6.658,5.649 -6.874,5.332 -7.077,5.009 -7.267,4.68 -7.457,4.35 -7.642,4.014 -7.818,3.671 -7.895,3.582 -7.949,3.49 -7.98,3.396 -8.012,3.3 -8.06,3.221 -8.123,3.157 h 0.038 C -8.11,3.145 -8.126,3.126 -8.133,3.101 -8.139,3.075 -8.155,3.068 -8.18,3.081 -8.155,3.018 -8.161,2.977 -8.199,2.958 -8.237,2.938 -8.244,2.903 -8.218,2.854 -8.319,2.714 -8.393,2.574 -8.437,2.435 -8.481,2.295 -8.555,2.143 -8.655,1.978 -8.693,1.788 -8.754,1.607 -8.837,1.436 -8.919,1.265 -8.973,1.071 -8.998,0.855 -9.036,0.805 -9.056,0.754 -9.056,0.703 c 0,-0.05 -0.012,-0.107 -0.037,-0.171 -0.064,-0.279 -0.118,-0.554 -0.162,-0.827 -0.045,-0.272 -0.054,-0.581 -0.028,-0.923 0,-0.254 0.066,-0.511 0.199,-0.77 0.134,-0.26 0.289,-0.448 0.467,-0.562 0.151,-0.101 0.364,-0.139 0.637,-0.114 0.272,0.026 0.498,0.063 0.675,0.114 0.152,0.051 0.314,0.093 0.485,0.124 0.172,0.031 0.333,0.073 0.485,0.123 0.356,0.141 0.701,0.299 1.037,0.476 0.336,0.178 0.669,0.343 0.998,0.495 0.076,0.051 0.165,0.099 0.267,0.143 0.101,0.044 0.203,0.091 0.304,0.142 0.064,0.064 0.156,0.114 0.276,0.152 0.121,0.039 0.213,0.102 0.276,0.191 h 0.038 L 0.666,1.521 C 1.389,1.94 2.051,2.313 2.653,2.644 3.256,2.974 3.77,3.24 4.194,3.442 4.619,3.646 4.93,3.772 5.127,3.823 5.323,3.874 5.377,3.836 5.288,3.709 5.199,3.582 4.946,3.36 4.527,3.043 4.109,2.727 3.494,2.295 2.683,1.75 2.683,1.712 2.618,1.654 2.492,1.578 2.365,1.502 2.257,1.439 2.169,1.389 c 0.012,0 0.021,0.003 0.028,0.008 0.006,0.007 0.016,0.01 0.029,0.01 C 2.086,1.331 1.912,1.224 1.702,1.084 1.493,0.944 1.281,0.802 1.065,0.656 0.85,0.51 0.644,0.377 0.447,0.257 0.25,0.136 0.102,0.051 0,0" style="fill:#191919;fill-opacity:1;fill-rule:nonzero;stroke:none" id="path116"/>
        </g>
        <g id="g118" transform="translate(316.7441,364.4457)">
          <path d="m 0,0 c -0.064,0.025 -0.127,0.038 -0.19,0.038 -0.064,0 -0.122,0.025 -0.172,0.076 L -0.419,0.057 C -0.495,-0.007 -0.556,-0.083 -0.6,-0.171 -0.645,-0.26 -0.698,-0.355 -0.762,-0.457 -0.825,-0.533 -0.907,-0.646 -1.009,-0.799 -1.11,-0.951 -1.212,-1.113 -1.313,-1.284 -1.415,-1.455 -1.507,-1.62 -1.589,-1.779 c -0.083,-0.158 -0.13,-0.283 -0.142,-0.37 -0.039,-0.165 -0.089,-0.343 -0.153,-0.534 -0.063,-0.19 -0.051,-0.374 0.038,-0.551 0.279,0.101 0.524,0.228 0.733,0.38 0.209,0.153 0.402,0.324 0.58,0.514 l 0.114,0.133 c 0.051,0.089 0.146,0.254 0.285,0.495 0.14,0.24 0.257,0.487 0.353,0.741 0.094,0.254 0.138,0.479 0.133,0.676 C 0.345,-0.099 0.228,0 0,0 M 1.369,-0.913 C 1.382,-1.002 1.375,-1.101 1.351,-1.208 1.324,-1.316 1.286,-1.401 1.236,-1.465 1.211,-1.528 1.179,-1.611 1.141,-1.712 1.103,-1.813 1.059,-1.902 1.008,-1.979 0.906,-2.067 0.814,-2.197 0.731,-2.368 0.649,-2.54 0.558,-2.657 0.456,-2.721 0.202,-2.987 -0.014,-3.193 -0.19,-3.339 c -0.178,-0.145 -0.366,-0.275 -0.562,-0.39 -0.196,-0.114 -0.364,-0.159 -0.504,-0.133 -0.203,-0.076 -0.399,-0.105 -0.59,-0.085 -0.19,0.018 -0.361,0.069 -0.513,0.152 -0.153,0.082 -0.28,0.196 -0.381,0.342 -0.102,0.145 -0.165,0.314 -0.19,0.504 -0.012,0.025 -0.019,0.073 -0.019,0.143 0,0.07 0.019,0.117 0.057,0.143 -0.038,0.088 -0.035,0.184 0.009,0.285 0.045,0.102 0.067,0.19 0.067,0.267 l 0.342,0.969 c 0.038,0.013 0.061,0.036 0.067,0.067 0.007,0.031 0.022,0.048 0.048,0.048 0.076,0.177 0.18,0.354 0.313,0.532 0.134,0.178 0.27,0.343 0.409,0.495 0.076,0.102 0.162,0.209 0.257,0.323 0.096,0.114 0.196,0.216 0.305,0.305 0.107,0.088 0.219,0.145 0.333,0.171 0.114,0.025 0.221,-0.007 0.323,-0.095 0.127,-0.026 0.234,-0.064 0.323,-0.114 0.013,-0.026 0.029,-0.026 0.048,0 0.019,0.025 0.041,0.031 0.067,0.018 0.025,0.013 0.073,0.013 0.142,0 C 0.23,0.596 0.304,0.577 0.38,0.552 0.456,0.526 0.525,0.501 0.589,0.476 0.652,0.45 0.697,0.425 0.723,0.399 L 0.913,0.133 C 1.064,0.171 1.303,0.216 1.626,0.267 1.949,0.316 2.289,0.358 2.644,0.39 2.999,0.421 3.329,0.435 3.633,0.428 3.938,0.421 4.159,0.374 4.299,0.285 4.312,0.272 4.327,0.267 4.347,0.267 4.365,0.267 4.381,0.26 4.394,0.247 4.406,0.234 4.419,0.229 4.432,0.229 4.508,0.24 4.549,0.234 4.556,0.209 4.562,0.184 4.591,0.171 4.642,0.171 4.704,0.12 4.718,0.066 4.68,0.01 4.642,-0.048 4.597,-0.089 4.546,-0.114 4.406,-0.127 4.321,-0.146 4.289,-0.171 4.258,-0.197 4.226,-0.219 4.194,-0.238 4.162,-0.257 4.108,-0.27 4.032,-0.276 3.956,-0.282 3.811,-0.285 3.595,-0.285 3.417,-0.285 3.23,-0.298 3.034,-0.323 2.837,-0.349 2.638,-0.387 2.435,-0.437 2.231,-0.488 2.038,-0.536 1.854,-0.58 1.67,-0.625 1.515,-0.666 1.389,-0.704 1.375,-0.755 1.369,-0.796 1.369,-0.828 Z" style="fill:#191919;fill-opacity:1;fill-rule:nonzero;stroke:none" id="path120"/>
        </g>
        <g id="g122" transform="translate(324.8086,364.9779)">
          <path d="m 0,0 c -0.025,-0.038 -0.035,-0.069 -0.028,-0.095 0.006,-0.025 -0.016,-0.051 -0.067,-0.076 0,-0.025 -0.019,-0.038 -0.057,-0.038 -0.026,-0.063 -0.073,-0.102 -0.143,-0.114 -0.069,-0.013 -0.13,-0.051 -0.181,-0.114 -0.253,-0.077 -0.519,-0.171 -0.798,-0.286 -0.28,-0.114 -0.549,-0.237 -0.809,-0.371 -0.26,-0.133 -0.498,-0.269 -0.713,-0.409 -0.216,-0.14 -0.381,-0.278 -0.495,-0.418 l -0.323,-0.323 c -0.115,-0.114 -0.216,-0.241 -0.305,-0.381 -0.038,-0.102 -0.079,-0.229 -0.123,-0.381 -0.045,-0.151 -0.086,-0.301 -0.124,-0.446 -0.038,-0.147 -0.079,-0.277 -0.123,-0.391 -0.045,-0.114 -0.086,-0.183 -0.124,-0.209 -0.025,-0.051 -0.076,-0.121 -0.152,-0.209 -0.077,-0.089 -0.14,-0.127 -0.191,-0.114 -0.189,-0.089 -0.351,-0.076 -0.484,0.038 -0.134,0.114 -0.181,0.273 -0.144,0.476 0.026,0.127 0.083,0.316 0.172,0.57 0.089,0.254 0.146,0.45 0.171,0.59 v 0.019 c 0.013,0.038 0.02,0.077 0.02,0.114 0.1,0.177 0.183,0.362 0.247,0.551 0.063,0.191 0.139,0.374 0.228,0.552 0,0.013 0.009,0.023 0.028,0.029 0.019,0.006 0.029,0.016 0.029,0.029 0.063,0.253 0.142,0.504 0.238,0.751 0.095,0.247 0.181,0.485 0.257,0.714 0.012,0.049 0.031,0.088 0.056,0.114 0.026,0.024 0.051,0.057 0.077,0.095 0.063,0.025 0.117,0.05 0.161,0.076 0.045,0.025 0.093,0.038 0.143,0.038 0.025,0.025 0.057,0.038 0.095,0.038 0.025,0 0.054,-0.004 0.086,-0.01 0.031,-0.007 0.06,-0.01 0.085,-0.01 0.114,-0.012 0.196,-0.056 0.248,-0.132 0.151,-0.204 0.139,-0.394 -0.038,-0.571 -0.014,-0.101 -0.035,-0.203 -0.067,-0.304 -0.032,-0.102 -0.054,-0.191 -0.067,-0.267 0.444,0.33 0.882,0.559 1.313,0.685 0.431,0.127 0.831,0.203 1.199,0.228 0.1,0.013 0.219,0.025 0.351,0.038 C -0.219,0.089 -0.102,0.063 0,0" style="fill:#191919;fill-opacity:1;fill-rule:nonzero;stroke:none" id="path124"/>
        </g>
        <g id="g126" transform="translate(325.5322,362.6195)">
          <path d="m 0,0 c 0.088,0.013 0.164,0.054 0.228,0.123 0.063,0.07 0.133,0.13 0.209,0.181 0.33,0.292 0.647,0.584 0.952,0.876 0.303,0.291 0.659,0.557 1.065,0.799 0.139,0.087 0.298,0.183 0.476,0.285 0.176,0.101 0.354,0.158 0.532,0.171 0.127,0 0.263,-0.048 0.409,-0.143 C 4.017,2.197 4.096,2.093 4.108,1.979 4.121,1.839 4.105,1.692 4.062,1.541 4.017,1.389 3.976,1.242 3.938,1.104 3.925,1.002 3.896,0.837 3.852,0.608 3.808,0.38 3.763,0.14 3.719,-0.114 3.674,-0.368 3.64,-0.609 3.614,-0.837 3.589,-1.065 3.582,-1.23 3.595,-1.332 c 0.114,0.051 0.216,0.096 0.304,0.134 0.089,0.037 0.197,0.088 0.324,0.151 0.139,0.064 0.225,0.102 0.256,0.114 0.033,0.013 0.054,0.023 0.067,0.029 0.013,0.007 0.032,0.019 0.058,0.038 0.025,0.019 0.107,0.067 0.247,0.143 0.088,0.076 0.177,0.149 0.266,0.219 0.089,0.069 0.178,0.123 0.267,0.161 0.05,0.026 0.12,0.038 0.209,0.038 0.101,0.064 0.199,0.12 0.295,0.171 0.094,0.051 0.174,0.109 0.237,0.172 0.114,-0.051 0.172,-0.099 0.172,-0.142 0,-0.045 -0.013,-0.099 -0.038,-0.163 C 6.17,-0.381 6.043,-0.482 5.878,-0.571 5.802,-0.66 5.738,-0.729 5.687,-0.78 5.637,-0.831 5.567,-0.875 5.479,-0.913 5.339,-1.027 5.25,-1.101 5.212,-1.132 5.174,-1.164 5.146,-1.189 5.127,-1.208 5.107,-1.228 5.076,-1.25 5.031,-1.274 4.987,-1.301 4.889,-1.363 4.736,-1.465 4.597,-1.541 4.441,-1.64 4.271,-1.76 4.1,-1.881 3.938,-1.966 3.785,-2.017 3.658,-2.042 3.541,-2.062 3.434,-2.074 3.325,-2.087 3.228,-2.093 3.139,-2.093 2.999,-2.118 2.875,-2.045 2.768,-1.874 2.66,-1.703 2.605,-1.548 2.605,-1.408 c 0,0.063 0.02,0.193 0.058,0.39 0.038,0.197 0.079,0.406 0.124,0.627 C 2.831,-0.169 2.875,0.044 2.92,0.247 2.964,0.45 2.992,0.59 3.006,0.666 3.018,0.843 3.044,1.002 3.081,1.142 3.119,1.28 3.151,1.42 3.177,1.56 3.075,1.534 2.986,1.49 2.91,1.427 L 2.682,1.236 C 2.454,1.059 2.231,0.881 2.017,0.704 1.801,0.526 1.585,0.329 1.369,0.114 1.242,0 1.104,-0.114 0.951,-0.229 0.799,-0.343 0.652,-0.47 0.514,-0.609 0.082,-1.065 -0.267,-1.446 -0.533,-1.75 c -0.266,-0.305 -0.463,-0.47 -0.59,-0.495 -0.102,-0.026 -0.219,0 -0.352,0.076 -0.132,0.076 -0.212,0.165 -0.237,0.267 -0.013,0.05 -0.004,0.126 0.028,0.228 0.032,0.101 0.067,0.196 0.105,0.285 0.114,0.533 0.272,1.011 0.475,1.436 0.203,0.425 0.393,0.866 0.571,1.322 0.025,0.064 0.063,0.134 0.114,0.21 0.051,0.076 0.089,0.146 0.114,0.209 0.026,0.089 0.044,0.174 0.057,0.257 0.013,0.082 0.025,0.155 0.038,0.219 0.025,0.025 0.055,0.059 0.086,0.104 0.031,0.044 0.066,0.079 0.104,0.105 C 0.12,2.574 0.275,2.6 0.446,2.549 0.618,2.498 0.716,2.409 0.741,2.282 0.805,2.131 0.805,1.997 0.741,1.883 0.678,1.769 0.614,1.661 0.552,1.56 0.525,1.483 0.514,1.407 0.514,1.331 0.514,1.255 0.501,1.186 0.476,1.122 0.399,0.944 0.32,0.767 0.237,0.59 0.155,0.412 0.076,0.215 0,0" style="fill:#191919;fill-opacity:1;fill-rule:nonzero;stroke:none" id="path128"/>
        </g>
        <g id="g130" transform="translate(332.4941,363.0375)">
          <path d="M 0,0 C 0.114,0 0.225,0.032 0.333,0.096 0.44,0.159 0.545,0.222 0.646,0.286 0.9,0.488 1.16,0.714 1.427,0.961 1.693,1.208 1.934,1.459 2.149,1.713 2.175,1.713 2.188,1.731 2.188,1.77 1.731,1.604 1.328,1.363 0.979,1.047 0.631,0.729 0.305,0.381 0,0 M 1.369,-1.959 C 1.268,-2.022 1.157,-2.07 1.037,-2.102 0.916,-2.134 0.799,-2.168 0.685,-2.206 0.532,-2.244 0.361,-2.282 0.171,-2.32 c -0.191,-0.038 -0.38,-0.055 -0.57,-0.048 -0.191,0.006 -0.372,0.044 -0.542,0.114 -0.172,0.069 -0.315,0.187 -0.429,0.352 -0.089,0.114 -0.139,0.254 -0.151,0.419 -0.013,0.165 0,0.333 0.037,0.504 0.038,0.17 0.092,0.342 0.162,0.513 0.069,0.171 0.142,0.326 0.218,0.466 0.064,0.051 0.115,0.114 0.153,0.19 0.038,0.077 0.063,0.14 0.076,0.191 0.267,0.316 0.542,0.621 0.827,0.913 0.285,0.292 0.58,0.519 0.885,0.685 0.14,0.088 0.285,0.165 0.437,0.228 0.153,0.064 0.292,0.127 0.419,0.19 0.05,0.026 0.092,0.051 0.123,0.077 0.033,0.025 0.08,0.038 0.143,0.038 0.457,0 0.755,-0.08 0.895,-0.239 C 2.993,2.115 3.063,1.96 3.063,1.808 3.05,1.757 3.006,1.699 2.93,1.637 2.854,1.572 2.796,1.51 2.759,1.446 2.694,1.383 2.638,1.322 2.587,1.266 2.536,1.208 2.498,1.154 2.473,1.104 1.966,0.659 1.458,0.267 0.951,-0.076 0.824,-0.178 0.656,-0.247 0.447,-0.285 0.237,-0.323 0.025,-0.33 -0.19,-0.304 -0.267,-0.38 -0.343,-0.479 -0.419,-0.599 -0.495,-0.72 -0.555,-0.847 -0.6,-0.979 c -0.044,-0.133 -0.063,-0.267 -0.056,-0.4 0.006,-0.133 0.059,-0.244 0.161,-0.333 0.254,-0.025 0.475,0 0.666,0.076 0.19,0.076 0.374,0.14 0.552,0.191 0.139,0.038 0.285,0.082 0.437,0.133 0.152,0.05 0.285,0.101 0.4,0.152 0.266,0.127 0.485,0.228 0.656,0.305 0.172,0.076 0.333,0.145 0.485,0.209 0.153,0.063 0.311,0.132 0.476,0.209 0.165,0.076 0.374,0.183 0.628,0.323 C 4.007,-0.013 4.214,0.092 4.423,0.2 4.632,0.308 4.832,0.412 5.022,0.514 5.061,0.539 5.076,0.555 5.069,0.562 5.063,0.567 5.054,0.567 5.041,0.562 5.028,0.555 5.022,0.549 5.022,0.542 c 0,-0.006 0.026,-0.003 0.077,0.01 0.011,0 0.028,0.007 0.047,0.019 C 5.165,0.584 5.181,0.59 5.193,0.59 5.308,0.59 5.384,0.58 5.422,0.562 5.46,0.542 5.476,0.511 5.469,0.467 5.463,0.422 5.437,0.371 5.393,0.314 5.349,0.257 5.301,0.19 5.25,0.114 5.263,0.114 5.247,0.099 5.203,0.066 5.158,0.035 5.107,0.003 5.051,-0.028 4.993,-0.06 4.921,-0.107 4.832,-0.171 4.692,-0.272 4.521,-0.38 4.318,-0.494 4.115,-0.608 3.912,-0.72 3.71,-0.827 3.507,-0.936 3.316,-1.033 3.139,-1.122 2.961,-1.211 2.828,-1.274 2.739,-1.312 Z" style="fill:#191919;fill-opacity:1;fill-rule:nonzero;stroke:none" id="path132"/>
        </g>
        <g id="g134" transform="translate(337.916,365.9672)">
          <path d="M 0,0 C -0.038,-0.013 -0.083,-0.003 -0.134,0.028 -0.185,0.061 -0.216,0.051 -0.229,0 c -0.025,0.013 -0.038,0.028 -0.038,0.048 0,0.018 -0.018,0.015 -0.056,-0.01 0,-0.013 -0.004,-0.022 -0.01,-0.028 -0.007,-0.007 -0.004,-0.023 0.01,-0.048 -0.165,0 -0.264,0.058 -0.295,0.172 -0.032,0.113 -0.029,0.247 0.009,0.399 0.038,0.153 0.101,0.301 0.19,0.446 0.089,0.147 0.184,0.251 0.285,0.315 0.038,0 0.073,0.013 0.105,0.038 0.032,0.025 0.06,0.044 0.086,0.057 C 0.158,1.414 0.26,1.411 0.361,1.38 0.463,1.348 0.552,1.319 0.628,1.294 0.652,1.256 0.672,1.208 0.685,1.151 0.697,1.094 0.69,1.053 0.666,1.027 0.779,1.002 0.833,0.941 0.827,0.847 0.82,0.752 0.773,0.691 0.685,0.666 0.685,0.653 0.682,0.644 0.675,0.638 0.669,0.631 0.666,0.615 0.666,0.59 0.64,0.577 0.614,0.539 0.59,0.476 0.514,0.463 0.469,0.429 0.456,0.371 0.443,0.314 0.405,0.272 0.342,0.247 0.354,0.234 0.349,0.216 0.323,0.19 0.298,0.165 0.257,0.121 0.199,0.058 0.143,-0.006 0.076,-0.025 0,0 m -6.449,-12.536 c -0.114,-0.241 -0.263,-0.469 -0.447,-0.685 -0.184,-0.216 -0.327,-0.412 -0.428,-0.59 0,-0.063 -0.038,-0.133 -0.114,-0.21 -0.026,-0.049 -0.048,-0.104 -0.067,-0.161 -0.019,-0.057 -0.054,-0.111 -0.104,-0.162 -0.051,-0.114 -0.112,-0.219 -0.181,-0.313 -0.07,-0.095 -0.117,-0.2 -0.143,-0.315 -0.076,-0.088 -0.13,-0.192 -0.162,-0.313 -0.031,-0.12 -0.079,-0.225 -0.142,-0.314 -0.026,-0.101 -0.064,-0.187 -0.115,-0.256 -0.05,-0.071 -0.063,-0.156 -0.038,-0.257 0.229,0.127 0.412,0.285 0.552,0.475 0.14,0.19 0.311,0.374 0.514,0.552 v 0.057 c 0.076,0.05 0.127,0.111 0.152,0.18 0.026,0.071 0.069,0.124 0.133,0.162 0.102,0.254 0.231,0.479 0.39,0.675 0.159,0.198 0.295,0.416 0.409,0.657 0.139,0.177 0.263,0.365 0.371,0.561 0.108,0.196 0.231,0.384 0.371,0.562 0.14,0.354 0.308,0.677 0.504,0.969 0.197,0.292 0.358,0.647 0.485,1.066 0.026,0.063 0.045,0.101 0.057,0.114 0.013,0.013 0.013,0.038 0,0.076 h -0.076 c -0.126,-0.152 -0.279,-0.346 -0.456,-0.58 -0.178,-0.235 -0.359,-0.476 -0.542,-0.724 -0.184,-0.247 -0.362,-0.484 -0.534,-0.712 -0.17,-0.229 -0.3,-0.4 -0.389,-0.514 m 4.888,5.687 c -0.063,-0.024 -0.104,-0.066 -0.123,-0.123 -0.019,-0.057 -0.06,-0.098 -0.124,-0.124 0.013,-0.05 -0.012,-0.089 -0.076,-0.114 -0.038,-0.164 -0.101,-0.316 -0.19,-0.456 -0.025,-0.025 -0.031,-0.041 -0.019,-0.048 0.013,-0.006 0.019,-0.015 0.019,-0.028 -0.24,-0.394 -0.453,-0.802 -0.637,-1.228 -0.184,-0.425 -0.364,-0.845 -0.542,-1.264 -0.178,-0.419 -0.371,-0.828 -0.58,-1.227 -0.21,-0.4 -0.454,-0.77 -0.732,-1.113 -0.064,-0.114 -0.156,-0.298 -0.277,-0.552 -0.12,-0.254 -0.254,-0.511 -0.399,-0.77 -0.146,-0.26 -0.295,-0.495 -0.447,-0.705 -0.153,-0.209 -0.291,-0.326 -0.418,-0.351 0.025,-0.051 0.012,-0.089 -0.039,-0.114 -0.025,-0.026 -0.05,-0.038 -0.076,-0.038 0,-0.064 -0.05,-0.133 -0.152,-0.209 -0.064,-0.064 -0.13,-0.134 -0.2,-0.209 -0.07,-0.077 -0.105,-0.147 -0.105,-0.21 -0.038,0.012 -0.063,-0.006 -0.076,-0.057 -0.012,-0.051 -0.05,-0.069 -0.114,-0.058 -0.025,-0.011 -0.038,-0.024 -0.038,-0.038 0,-0.011 -0.012,-0.031 -0.037,-0.056 0,-0.013 -0.017,-0.019 -0.048,-0.019 -0.031,0 -0.054,-0.019 -0.067,-0.058 -0.05,-0.025 -0.076,-0.05 -0.076,-0.076 0,-0.025 -0.007,-0.051 -0.019,-0.076 H -7.21 c -0.051,-0.05 -0.076,-0.088 -0.076,-0.114 -0.114,-0.026 -0.203,-0.079 -0.267,-0.161 -0.063,-0.083 -0.152,-0.143 -0.266,-0.181 0.05,-0.013 0.064,-0.022 0.038,-0.028 -0.025,-0.007 -0.025,-0.01 0,-0.01 -0.025,-0.013 -0.05,-0.013 -0.076,0 -0.025,0.013 -0.057,0.006 -0.095,-0.02 0.013,-0.038 -0.01,-0.072 -0.067,-0.104 -0.057,-0.031 -0.124,-0.06 -0.2,-0.086 -0.076,-0.024 -0.145,-0.047 -0.209,-0.066 -0.063,-0.019 -0.094,-0.035 -0.094,-0.047 -0.013,-0.013 -0.033,-0.013 -0.058,0 0,-0.026 0.013,-0.038 0.038,-0.038 -0.013,-0.026 -0.034,-0.033 -0.066,-0.02 -0.032,0.013 -0.067,0.02 -0.105,0.02 0.025,0 0.025,-0.007 0,-0.02 -0.025,-0.013 -0.063,-0.025 -0.114,-0.038 -0.051,-0.013 -0.105,-0.019 -0.162,-0.019 h -0.105 c -0.063,0.013 -0.11,0.036 -0.142,0.067 -0.032,0.031 -0.073,0.054 -0.123,0.066 0,0.064 0.003,0.121 0.008,0.171 0.007,0.051 -0.003,0.109 -0.028,0.172 0,0.051 -0.006,0.095 -0.018,0.133 -0.013,0.038 -0.02,0.089 -0.02,0.152 0.063,0.292 0.159,0.565 0.285,0.819 0.102,0.341 0.238,0.659 0.409,0.951 0.171,0.291 0.346,0.583 0.524,0.875 0.051,0.089 0.158,0.257 0.323,0.504 0.165,0.247 0.361,0.532 0.59,0.855 0.228,0.324 0.473,0.666 0.732,1.027 0.26,0.363 0.511,0.702 0.751,1.019 0.241,0.316 0.454,0.593 0.638,0.827 0.184,0.235 0.32,0.39 0.409,0.466 0.089,0.063 0.158,0.131 0.209,0.2 0.051,0.069 0.114,0.136 0.191,0.199 l 0.399,0.4 c 0.089,0.063 0.165,0.139 0.228,0.228 0.064,0.089 0.121,0.165 0.171,0.229 0.026,0 0.051,0.018 0.077,0.056 0.05,0.064 0.085,0.131 0.104,0.201 0.02,0.069 0.061,0.136 0.124,0.199 0.076,0.216 0.149,0.434 0.219,0.656 0.069,0.223 0.148,0.442 0.237,0.657 l 0.305,0.932 c 0.165,0.419 0.304,0.865 0.418,1.341 0.114,0.475 0.241,0.935 0.381,1.38 0.012,0.291 0.059,0.545 0.142,0.76 0.082,0.216 0.155,0.444 0.219,0.685 0.038,0.051 0.096,0.086 0.171,0.104 0.076,0.02 0.152,0.048 0.228,0.086 0.026,0.013 0.041,0.029 0.048,0.048 0.006,0.019 0.016,0.029 0.029,0.029 0.076,0.012 0.152,0 0.228,-0.038 0.076,-0.039 0.152,-0.064 0.229,-0.077 0.025,-0.063 0.066,-0.101 0.123,-0.114 0.057,-0.013 0.111,-0.038 0.162,-0.076 0.063,-0.064 0.12,-0.14 0.171,-0.229 0.05,-0.088 0.069,-0.17 0.057,-0.247 C 0.139,-1.452 0.146,-1.506 0.133,-1.55 0.12,-1.595 0.114,-1.648 0.114,-1.712 0.013,-1.813 -0.061,-1.931 -0.104,-2.063 c -0.045,-0.134 -0.106,-0.27 -0.181,-0.41 0,-0.038 -0.007,-0.07 -0.02,-0.095 -0.012,-0.026 -0.012,-0.051 0,-0.076 -0.025,0 -0.038,-0.009 -0.038,-0.029 0,-0.018 -0.007,-0.028 -0.018,-0.028 -0.038,-0.279 -0.096,-0.539 -0.172,-0.78 -0.076,-0.241 -0.158,-0.476 -0.247,-0.704 -0.089,-0.228 -0.178,-0.46 -0.267,-0.694 -0.089,-0.235 -0.165,-0.485 -0.227,-0.752 0.138,0.064 0.272,0.152 0.399,0.267 0.126,0.114 0.266,0.221 0.418,0.323 0.14,0.102 0.285,0.2 0.437,0.295 0.153,0.095 0.305,0.193 0.457,0.295 0.14,0.101 0.283,0.196 0.428,0.285 0.146,0.089 0.288,0.178 0.428,0.267 0.355,0.177 0.686,0.354 0.989,0.532 0.305,0.178 0.565,0.248 0.781,0.21 C 3.037,-3.184 3.006,-3.199 2.968,-3.205 2.93,-3.212 2.91,-3.233 2.91,-3.271 2.961,-3.284 3.021,-3.275 3.091,-3.243 3.16,-3.212 3.215,-3.222 3.253,-3.271 2.758,-3.652 2.312,-3.954 1.911,-4.176 1.512,-4.397 1.217,-4.604 1.027,-4.794 Z" style="fill:#191919;fill-opacity:1;fill-rule:nonzero;stroke:none" id="path136"/>
        </g>
        <g id="g138" transform="translate(343.0332,364.4457)">
          <path d="m 0,0 c -0.064,0.025 -0.127,0.038 -0.19,0.038 -0.064,0 -0.122,0.025 -0.172,0.076 L -0.419,0.057 C -0.495,-0.007 -0.556,-0.083 -0.6,-0.171 -0.645,-0.26 -0.698,-0.355 -0.762,-0.457 -0.825,-0.533 -0.907,-0.646 -1.009,-0.799 -1.11,-0.951 -1.212,-1.113 -1.313,-1.284 -1.415,-1.455 -1.507,-1.62 -1.589,-1.779 c -0.083,-0.158 -0.13,-0.283 -0.142,-0.37 -0.039,-0.165 -0.089,-0.343 -0.153,-0.534 -0.063,-0.19 -0.051,-0.374 0.038,-0.551 0.279,0.101 0.524,0.228 0.733,0.38 0.209,0.153 0.402,0.324 0.58,0.514 l 0.114,0.133 c 0.051,0.089 0.146,0.254 0.285,0.495 0.14,0.24 0.257,0.487 0.353,0.741 0.094,0.254 0.138,0.479 0.133,0.676 C 0.345,-0.099 0.228,0 0,0 M 1.369,-0.913 C 1.382,-1.002 1.375,-1.101 1.351,-1.208 1.324,-1.316 1.286,-1.401 1.236,-1.465 1.211,-1.528 1.179,-1.611 1.141,-1.712 1.103,-1.813 1.059,-1.902 1.008,-1.979 0.906,-2.067 0.814,-2.197 0.731,-2.368 0.649,-2.54 0.558,-2.657 0.456,-2.721 0.202,-2.987 -0.014,-3.193 -0.19,-3.339 c -0.178,-0.145 -0.366,-0.275 -0.562,-0.39 -0.196,-0.114 -0.364,-0.159 -0.504,-0.133 -0.203,-0.076 -0.399,-0.105 -0.59,-0.085 -0.19,0.018 -0.361,0.069 -0.513,0.152 -0.153,0.082 -0.28,0.196 -0.381,0.342 -0.102,0.145 -0.165,0.314 -0.19,0.504 -0.012,0.025 -0.019,0.073 -0.019,0.143 0,0.07 0.019,0.117 0.057,0.143 -0.038,0.088 -0.035,0.184 0.009,0.285 0.045,0.102 0.067,0.19 0.067,0.267 l 0.342,0.969 c 0.038,0.013 0.061,0.036 0.067,0.067 0.007,0.031 0.022,0.048 0.048,0.048 0.076,0.177 0.18,0.354 0.313,0.532 0.134,0.178 0.27,0.343 0.409,0.495 0.076,0.102 0.162,0.209 0.257,0.323 0.096,0.114 0.196,0.216 0.305,0.305 0.107,0.088 0.219,0.145 0.333,0.171 0.114,0.025 0.221,-0.007 0.323,-0.095 0.127,-0.026 0.234,-0.064 0.323,-0.114 0.013,-0.026 0.029,-0.026 0.048,0 0.019,0.025 0.041,0.031 0.067,0.018 0.025,0.013 0.073,0.013 0.142,0 C 0.23,0.596 0.304,0.577 0.38,0.552 0.456,0.526 0.525,0.501 0.589,0.476 0.652,0.45 0.697,0.425 0.723,0.399 L 0.913,0.133 C 1.064,0.171 1.303,0.216 1.626,0.267 1.949,0.316 2.289,0.358 2.644,0.39 2.999,0.421 3.329,0.435 3.633,0.428 3.938,0.421 4.159,0.374 4.299,0.285 4.312,0.272 4.327,0.267 4.347,0.267 4.365,0.267 4.381,0.26 4.394,0.247 4.406,0.234 4.419,0.229 4.432,0.229 4.508,0.24 4.549,0.234 4.556,0.209 4.562,0.184 4.591,0.171 4.642,0.171 4.704,0.12 4.718,0.066 4.68,0.01 4.642,-0.048 4.597,-0.089 4.546,-0.114 4.406,-0.127 4.321,-0.146 4.289,-0.171 4.258,-0.197 4.226,-0.219 4.194,-0.238 4.162,-0.257 4.108,-0.27 4.032,-0.276 3.956,-0.282 3.811,-0.285 3.595,-0.285 3.417,-0.285 3.23,-0.298 3.034,-0.323 2.837,-0.349 2.638,-0.387 2.435,-0.437 2.231,-0.488 2.038,-0.536 1.854,-0.58 1.67,-0.625 1.515,-0.666 1.389,-0.704 1.375,-0.755 1.369,-0.796 1.369,-0.828 Z" style="fill:#191919;fill-opacity:1;fill-rule:nonzero;stroke:none" id="path140"/>
        </g>
        <g transform="matrix(1, 0, 0, 1, -203.558456, -79.219971)">
          <g id="g142" transform="matrix(1, 0, 0, 1, 310.728485, 463.740112)">
            <path d="m 0,0 c 1.51,5.281 2.313,10.853 2.313,16.613 0,1.976 -0.097,3.926 -0.278,5.851 0.02,0.24 0.045,0.479 0.065,0.719 2.274,-2.08 4.231,-4.497 5.793,-7.179 C 5.631,10.963 3.706,6.706 0,0" style="fill:#cca811;fill-opacity:1;fill-rule:nonzero;stroke:none" id="path144"/>
          </g>
          <g id="g146" transform="matrix(1, 0, 0, 1, 304.80661, 448.760101)">
            <path d="m 0,0 c -2.346,-1.516 -4.528,-3.298 -6.492,-5.333 -3.078,-3.168 -5.624,-6.945 -7.451,-11.235 -3.175,0.117 -6.22,0.719 -9.071,1.73 1.419,1.886 2.974,3.668 4.652,5.333 -2.469,-1.257 -4.808,-2.728 -7.004,-4.387 -2.009,0.894 -3.901,2.009 -5.65,3.305 -0.408,0.291 -0.803,0.602 -1.192,0.92 0.013,0.032 0.032,0.064 0.045,0.097 0.681,1.393 1.199,2.877 1.549,4.419 1.691,0.168 3.375,0.363 5.053,0.576 5.929,0.733 11.799,1.685 17.592,2.845 1.976,0.395 3.946,0.816 5.908,1.263 0.337,0.071 0.674,0.149 1.011,0.221 0.351,0.084 0.7,0.162 1.05,0.246" style="fill:#021c66;fill-opacity:1;fill-rule:nonzero;stroke:none" id="path148"/>
          </g>
          <g id="g150" transform="matrix(1, 0, 0, 1, 289.240692, 472.130707)">
            <path d="m 0,0 c -0.415,-1.283 -1.62,-2.203 -3.032,-2.203 -0.61,0 -1.179,0.168 -1.666,0.473 -0.913,0.557 -1.522,1.568 -1.522,2.721 0,0.739 0.253,1.419 0.674,1.957 0.583,0.752 1.49,1.231 2.514,1.231 1.684,0 3.064,-1.302 3.181,-2.954 C 0.162,1.147 0.162,1.069 0.162,0.991 0.162,0.642 0.104,0.311 0,0 m 19.872,-13.295 c -0.421,-0.746 -0.842,-1.491 -1.277,-2.236 -0.304,-0.764 -0.725,-1.477 -1.237,-2.106 -0.007,-0.006 -0.007,-0.012 -0.013,-0.019 -0.007,-0.007 -0.013,-0.019 -0.019,-0.026 -1.05,-1.27 -2.476,-2.216 -4.109,-2.663 -0.679,-0.188 -1.399,-0.285 -2.137,-0.285 -4.477,0 -8.1,3.629 -8.1,8.099 0,0.881 0.143,1.73 0.402,2.527 0,0 0,0.006 0.007,0.006 0.959,1.31 1.904,2.624 2.838,3.953 0.006,0 0.006,0 0.006,0.006 0.065,0.091 0.136,0.188 0.194,0.286 1.569,2.235 3.104,4.496 4.588,6.79 -5.547,5.106 -12.946,8.222 -21.084,8.222 -5.313,0 -10.315,-1.328 -14.688,-3.68 -0.078,-0.084 -0.149,-0.169 -0.221,-0.26 -0.013,-0.019 -0.019,-0.045 -0.032,-0.064 0.007,-0.007 0.007,-0.013 0.013,-0.02 C -8.805,4.717 4.27,-8.17 5.086,-24.291 c 2.825,0.532 5.63,1.115 8.416,1.749 0.337,0.072 0.674,0.149 1.011,0.221 2.191,0.506 4.367,1.043 6.531,1.607 -0.09,2.566 -0.492,5.054 -1.172,7.419" style="fill:#191919;fill-opacity:1;fill-rule:nonzero;stroke:none" id="path152"/>
          </g>
          <g id="g154" transform="matrix(1, 0, 0, 1, 319.184601, 456.988586)">
            <path d="m 0,0 c -0.007,-1.056 -0.071,-2.099 -0.188,-3.123 -2.883,-0.868 -5.786,-1.685 -8.708,-2.449 -0.091,2.566 -0.493,5.054 -1.173,7.419 0.026,0.045 0.051,0.09 0.078,0.136 0.039,0.071 0.084,0.149 0.123,0.22 2.28,4.03 4.438,8.145 6.479,12.317 C -1.328,10.49 -0.117,5.948 -0.007,1.141 -2.741,1.782 -5.501,2.08 -8.235,2.047 -5.462,1.724 -2.695,1.043 0,0" style="fill:#282828;fill-opacity:1;fill-rule:nonzero;stroke:none" id="path156"/>
          </g>
          <g id="g158" transform="matrix(1, 0, 0, 1, 306.158203, 482.691803)">
            <path d="m 0,0 c -1.886,-3.227 -3.855,-6.401 -5.902,-9.524 -5.547,5.106 -12.946,8.222 -21.084,8.222 -5.313,0 -10.315,-1.328 -14.689,-3.68 5.708,6.608 14.151,10.788 23.565,10.788 C -11.352,5.806 -5.105,3.655 0,0" style="fill:#282828;fill-opacity:1;fill-rule:nonzero;stroke:none" id="path160"/>
          </g>
          <g id="g162" transform="matrix(1, 0, 0, 1, 319.184601, 456.988586)">
            <path d="M 0,0 C 0.842,-0.317 1.672,-0.68 2.494,-1.076 2.371,-1.529 2.235,-1.976 2.086,-2.423 1.328,-2.656 0.57,-2.89 -0.188,-3.123 -0.071,-2.099 -0.007,-1.056 0,0" style="fill:#373737;fill-opacity:1;fill-rule:nonzero;stroke:none" id="path164"/>
          </g>
          <g id="g166" transform="matrix(1, 0, 0, 1, 322.826202, 464.232788)">
            <path d="m 0,0 c 0,-2.378 -0.272,-4.691 -0.791,-6.914 -0.946,0.311 -1.898,0.583 -2.857,0.81 -0.111,4.808 -1.322,9.35 -3.382,13.38 1.173,2.384 2.306,4.795 3.394,7.224 C -1.315,10.179 0,5.242 0,0" style="fill:#373737;fill-opacity:1;fill-rule:nonzero;stroke:none" id="path168"/>
          </g>
          <g id="g170" transform="matrix(1, 0, 0, 1, 309.896515, 489.287994)">
            <path d="m 0,0 c -1.212,-2.223 -2.455,-4.419 -3.738,-6.596 -5.106,3.655 -11.352,5.805 -18.11,5.805 -9.414,0 -17.857,-4.179 -23.565,-10.788 -0.078,-0.084 -0.149,-0.168 -0.22,-0.259 0.032,0.065 0.058,0.13 0.097,0.195 4.976,10.276 15.511,17.351 27.692,17.351 3.292,0 6.46,-0.518 9.434,-1.477 C -8.196,4.166 -7.982,4.095 -7.769,4.017 -4.976,3.052 -2.365,1.691 0,0" style="fill:#373737;fill-opacity:1;fill-rule:nonzero;stroke:none" id="path172"/>
          </g>
          <g id="g174" transform="matrix(1, 0, 0, 1, 294.326691, 447.84021)">
            <path d="m 0,0 c -4.976,-0.946 -10.01,-1.73 -15.083,-2.359 -1.679,-0.214 -3.363,-0.408 -5.054,-0.577 0.337,1.484 0.512,3.02 0.512,4.601 0,8.63 -5.274,16.036 -12.771,19.166 2.883,-0.901 5.948,-1.38 9.123,-1.38 2.066,0 4.088,0.2 6.038,0.596 -5.079,1.237 -9.427,4.354 -12.265,8.565 -0.201,0.298 -0.402,0.603 -0.583,0.914 C -13.891,29.007 -0.816,16.12 0,0" style="fill:#0a0a0a;fill-opacity:1;fill-rule:nonzero;stroke:none" id="path176"/>
          </g>
          <g id="g178" transform="matrix(1, 0, 0, 1, 312.828094, 486.922699)">
            <path d="m 0,0 c -0.02,-0.24 -0.045,-0.479 -0.064,-0.719 -0.208,-2.164 -0.532,-4.296 -0.959,-6.388 -0.059,-0.286 -0.118,-0.571 -0.182,-0.85 -0.084,-0.395 -0.175,-0.79 -0.273,-1.179 -0.09,-0.382 -0.187,-0.771 -0.291,-1.153 0,-0.013 0,-0.026 -0.006,-0.039 -0.097,-0.369 -0.195,-0.738 -0.305,-1.108 -0.136,-0.479 -0.278,-0.952 -0.421,-1.425 -0.091,-0.298 -0.187,-0.596 -0.285,-0.888 -0.116,-0.363 -0.239,-0.726 -0.369,-1.088 -0.013,-0.033 -0.02,-0.065 -0.033,-0.091 -0.117,-0.324 -0.233,-0.648 -0.356,-0.972 -0.492,-1.341 -1.03,-2.657 -1.627,-3.946 -0.123,-0.291 -0.259,-0.583 -0.394,-0.868 -0.118,-0.253 -0.241,-0.499 -0.364,-0.745 -0.162,-0.344 -0.337,-0.687 -0.505,-1.024 -0.006,-0.006 -0.006,-0.013 -0.006,-0.013 -0.182,-0.35 -0.363,-0.693 -0.551,-1.037 -0.369,-0.693 -0.751,-1.373 -1.154,-2.047 -0.201,-0.337 -0.401,-0.674 -0.609,-1.004 -0.129,-0.214 -0.259,-0.428 -0.394,-0.635 -0.713,-1.128 -1.458,-2.222 -2.236,-3.292 -0.447,-0.609 -0.9,-1.211 -1.367,-1.801 -0.467,-0.596 -0.946,-1.179 -1.432,-1.75 -3.266,1.05 -6.447,4.879 -4.73,8.838 5.734,8.397 12.713,18.939 17.105,26.753 0.564,-0.44 1.121,-0.9 1.653,-1.386 C -0.104,0.098 -0.052,0.052 0,0" style="fill:#f9d113;fill-opacity:1;fill-rule:nonzero;stroke:none" id="path180"/>
          </g>
          <g id="g182" transform="matrix(1, 0, 0, 1, 313.041992, 480.352905)">
            <path d="m 0,0 c 0,-5.76 -0.804,-11.332 -2.313,-16.613 -1.225,-2.222 -2.65,-4.71 -4.341,-7.587 -1.821,-2.475 -4.011,-3.577 -6.045,-3.577 -0.551,0 -1.128,0.098 -1.698,0.285 0.486,0.571 0.965,1.154 1.432,1.75 0.467,0.59 0.92,1.192 1.367,1.801 0.778,1.069 1.523,2.164 2.236,3.292 0.135,0.207 0.265,0.421 0.394,0.634 0.208,0.331 0.415,0.668 0.61,1.005 0.402,0.674 0.784,1.354 1.153,2.047 0.188,0.344 0.369,0.687 0.551,1.037 0,0 0,0.007 0.007,0.013 0.168,0.337 0.342,0.68 0.504,1.024 0.123,0.246 0.247,0.492 0.364,0.745 0.135,0.285 0.271,0.577 0.394,0.868 0.597,1.289 1.135,2.605 1.627,3.946 0.123,0.324 0.239,0.648 0.357,0.972 0.012,0.025 0.019,0.058 0.032,0.09 0.13,0.363 0.253,0.726 0.369,1.089 0.098,0.292 0.194,0.59 0.285,0.887 0.143,0.474 0.285,0.947 0.421,1.426 0.11,0.369 0.208,0.739 0.305,1.108 0.007,0.013 0.007,0.026 0.007,0.039 0.103,0.382 0.2,0.771 0.291,1.153 0.097,0.389 0.188,0.784 0.272,1.179 0.065,0.279 0.123,0.564 0.182,0.849 0.427,2.093 0.751,4.225 0.959,6.389 C -0.098,3.926 0,1.976 0,0" style="fill:#e5bd13;fill-opacity:1;fill-rule:nonzero;stroke:none" id="path184"/>
          </g>
          <g id="g186" transform="matrix(1, 0, 0, 1, 305.234406, 448.863586)">
            <path d="M 0,0 C -0.505,-0.991 -0.972,-2.015 -1.393,-3.071 -3,-7.088 -3.849,-11.216 -4.011,-15.304 c -0.233,-0.078 -0.472,-0.149 -0.713,-0.22 -2.52,-0.72 -5.17,-1.121 -7.917,-1.166 -0.175,-0.007 -0.357,-0.007 -0.538,-0.007 -0.402,0 -0.797,0.007 -1.192,0.026 2.994,7.043 7.937,12.693 13.943,16.567 C -0.285,-0.071 -0.143,-0.039 0,0" style="fill:#03297f;fill-opacity:1;fill-rule:nonzero;stroke:none" id="path188"/>
          </g>
          <g id="g190" transform="matrix(1, 0, 0, 1, 306.770508, 435.917786)">
            <path d="m 0,0 c -1.75,-0.965 -3.609,-1.756 -5.547,-2.358 0.162,4.088 1.011,8.215 2.618,12.233 0.421,1.056 0.888,2.08 1.393,3.071 0.117,0.026 0.226,0.052 0.337,0.077 C -1.588,8.592 -1.16,4.186 0,0" style="fill:#043299;fill-opacity:1;fill-rule:nonzero;stroke:none" id="path192"/>
          </g>
          <g id="g194" transform="matrix(1, 0, 0, 1, 321.270508, 453.269409)">
            <path d="m 0,0 c -2.118,-6.421 -6.304,-11.902 -11.76,-15.667 -0.881,-0.609 -1.795,-1.172 -2.74,-1.685 -1.16,4.186 -1.588,8.592 -1.199,13.024 5.3,1.27 10.542,2.715 15.699,4.328" style="fill:#021c66;fill-opacity:1;fill-rule:nonzero;stroke:none" id="path196"/>
          </g>
          <g id="g198" transform="matrix(1, 0, 0, 1, 272.663086, 468.431)">
            <path d="m 0,0 c -0.538,-0.039 -1.082,-0.058 -1.633,-0.058 -0.997,0 -1.976,0.064 -2.935,0.194 -1.082,0.143 -2.144,0.369 -3.168,0.668 -3.033,0.557 -6.142,0.887 -9.317,0.965 h -0.033 c -0.538,0.045 -1.082,0.064 -1.633,0.064 -0.498,0 -0.997,-0.019 -1.49,-0.051 0.739,0.615 1.51,1.198 2.307,1.743 0.745,0.512 1.509,0.991 2.3,1.425 2.015,1.14 4.166,2.054 6.427,2.715 C -6.894,4.334 -3.719,1.665 0,0" style="fill:#464646;fill-opacity:1;fill-rule:nonzero;stroke:none" id="path200"/>
          </g>
        </g>
      </g>
    </g>
  </g>
</svg>